<svg width="165" height="40" viewBox="0 0 165 40" fill="none" xmlns="http://www.w3.org/2000/svg">
<path d="M18.8883 4.104C8.98038 4.104 0.919678 11.7311 0.919678 21.1063C0.919678 24.3835 1.90555 27.5579 3.77548 30.3028C3.4215 34.4191 2.47277 37.4751 1.09517 38.923C1.00648 39.0163 0.947925 39.1366 0.927787 39.2668C0.90765 39.3972 0.926946 39.5308 0.982947 39.6489C1.03895 39.767 1.12883 39.8636 1.23989 39.9251C1.35095 39.9865 1.47757 40.0099 1.60189 39.9916C1.84447 39.9556 7.47941 39.103 11.5553 36.6295C13.8696 37.6113 16.335 38.1087 18.8883 38.1087C28.7962 38.1087 36.8568 30.4815 36.8568 21.1063C36.8568 11.7311 28.7962 4.104 18.8883 4.104ZM10.5029 23.6252C9.18163 23.6252 8.10711 22.4955 8.10711 21.1063C8.10711 19.7172 9.18163 18.5875 10.5029 18.5875C11.8242 18.5875 12.8987 19.7172 12.8987 21.1063C12.8987 22.4955 11.8242 23.6252 10.5029 23.6252ZM18.8883 23.6252C17.5669 23.6252 16.4925 22.4955 16.4925 21.1063C16.4925 19.7172 17.5669 18.5875 18.8883 18.5875C20.2096 18.5875 21.284 19.7172 21.284 21.1063C21.284 22.4955 20.2096 23.6252 18.8883 23.6252ZM27.2735 23.6252C25.9523 23.6252 24.8778 22.4955 24.8778 21.1063C24.8778 19.7172 25.9523 18.5875 27.2735 18.5875C28.5948 18.5875 29.6694 19.7172 29.6694 21.1063C29.6694 22.4955 28.5948 23.6252 27.2735 23.6252Z" fill="white"/>
<path d="M19.4556 38.864C29.9017 38.864 38.3699 30.4061 38.3699 19.9727C38.3699 9.53925 29.9017 1.0813 19.4556 1.0813C9.00954 1.0813 0.541321 9.53925 0.541321 19.9727C0.541321 30.4061 9.00954 38.864 19.4556 38.864Z" fill="white"/>
<path d="M26.8896 29.1204C26.8896 34.9625 31.3979 39.7155 36.9394 39.7155C38.8763 39.7155 40.7526 39.1342 42.3751 38.0316C44.8083 38.2404 46.6146 38.7998 47.4704 39.6121C47.5255 39.6644 47.5966 39.6988 47.6737 39.7108C47.7505 39.7227 47.8295 39.7113 47.8994 39.6782C47.9692 39.6452 48.0262 39.5923 48.0626 39.5267C48.099 39.4612 48.1127 39.3865 48.102 39.3132C48.0807 39.1702 47.5767 35.8476 46.1146 33.4443C46.695 32.0796 46.989 30.626 46.989 29.1204C46.989 23.2783 42.4808 18.5254 36.9394 18.5254C31.3979 18.5254 26.8896 23.2783 26.8896 29.1204ZM38.4282 34.0649C38.4282 34.844 37.7605 35.4776 36.9394 35.4776C36.1182 35.4776 35.4505 34.844 35.4505 34.0649C35.4505 33.2857 36.1182 32.6521 36.9394 32.6521C37.7605 32.6521 38.4282 33.2857 38.4282 34.0649ZM38.4282 29.1204C38.4282 29.8996 37.7605 30.5331 36.9394 30.5331C36.1182 30.5331 35.4505 29.8996 35.4505 29.1204C35.4505 28.3414 36.1182 27.7078 36.9394 27.7078C37.7605 27.7078 38.4282 28.3414 38.4282 29.1204ZM38.4282 24.1761C38.4282 24.9552 37.7605 25.5888 36.9394 25.5888C36.1182 25.5888 35.4505 24.9552 35.4505 24.1761C35.4505 23.3971 36.1182 22.7635 36.9394 22.7635C37.7605 22.7635 38.4282 23.3971 38.4282 24.1761Z" fill="white"/>
<path d="M47.4357 28.7858C47.4357 22.6263 42.4364 17.6331 36.2694 17.6331C30.1025 17.6331 25.1031 22.6263 25.1031 28.7858C25.1031 34.9452 30.1025 39.9385 36.2694 39.9385C42.4364 39.9385 47.4357 34.9452 47.4357 28.7858Z" fill="white"/>
<mask id="mask0_23_916" style="mask-type:luminance" maskUnits="userSpaceOnUse" x="0" y="0" width="39" height="39">
<path d="M0 0H38.9661V38.9189H0V0Z" fill="white"/>
</mask>
<g mask="url(#mask0_23_916)">
<mask id="mask1_23_916" style="mask-type:luminance" maskUnits="userSpaceOnUse" x="0" y="0" width="39" height="39">
<path d="M19.4817 0C8.72177 0 0 8.71402 0 19.4608C0 30.2077 8.72177 38.9189 19.4817 38.9189C30.2443 38.9189 38.9661 30.2077 38.9661 19.4608C38.9661 8.71402 30.2443 0 19.4817 0Z" fill="white"/>
</mask>
<g mask="url(#mask1_23_916)">
<path d="M0 0H38.9661V38.9189H0V0Z" fill="white"/>
</g>
</g>
<mask id="mask2_23_916" style="mask-type:luminance" maskUnits="userSpaceOnUse" x="24" y="17" width="24" height="23">
<path d="M24.8461 17.0254H47.8486V39.9999H24.8461V17.0254Z" fill="white"/>
</mask>
<g mask="url(#mask2_23_916)">
<mask id="mask3_23_916" style="mask-type:luminance" maskUnits="userSpaceOnUse" x="24" y="17" width="24" height="23">
<path d="M36.3474 17.0254C29.9964 17.0254 24.8461 22.1692 24.8461 28.5126C24.8461 34.8559 29.9964 39.9999 36.3474 39.9999C42.6985 39.9999 47.8486 34.8559 47.8486 28.5126C47.8486 22.1692 42.6985 17.0254 36.3474 17.0254Z" fill="white"/>
</mask>
<g mask="url(#mask3_23_916)">
<path d="M24.8461 17.0254H47.8486V39.9999H24.8461V17.0254Z" fill="white"/>
<path d="M33.9259 35.1374H39.1678C39.51 35.1374 39.7873 34.8605 39.7873 34.5189V34.4288C39.7873 34.087 39.51 33.8101 39.1678 33.8101H33.9259C33.5839 33.8101 33.3065 34.087 33.3065 34.4288V34.5189C33.3065 34.8605 33.5839 35.1374 33.9259 35.1374Z" fill="#484848"/>
<path d="M36.3212 25.3221H36.7737V23.0369H36.3212V25.3221Z" fill="#484848"/>
<path d="M43.4671 32.1257C44.1816 31.9561 44.6233 31.2399 44.4535 30.5263C44.2835 29.8125 43.5666 29.3716 42.852 29.5412C42.1375 29.7108 41.6959 30.4269 41.8657 31.1405C42.0356 31.8543 42.7525 32.2953 43.4671 32.1257Z" fill="#484848"/>
<path d="M30.0296 32.0391C30.7458 31.8768 31.1948 31.1653 31.0324 30.45C30.8699 29.7346 30.1575 29.2861 29.4412 29.4485C28.7249 29.6108 28.2761 30.3223 28.4385 31.0376C28.6009 31.753 29.3133 32.2015 30.0296 32.0391Z" fill="#484848"/>
<path d="M36.284 24.8263C36.284 24.8263 30.8769 24.7615 30.0223 29.4423C29.1678 34.1233 33.739 34.2074 35.0545 34.2957C35.6503 34.3362 36.9262 34.3404 38.0522 34.3202C40.545 34.2772 42.3063 33.7957 42.9056 31.486C42.9769 31.2153 43.0218 30.9381 43.0395 30.6586C43.1972 28.1233 41.4839 24.7017 36.284 24.8263Z" fill="#484848"/>
<path d="M40.2062 31.9507L32.3509 32.0728C32.1549 32.0763 31.9601 32.0411 31.7778 31.9693C31.5955 31.8974 31.429 31.7904 31.288 31.6542C31.1472 31.5182 31.0346 31.3557 30.9566 31.176C30.8788 30.9963 30.8369 30.803 30.8339 30.6074C30.8305 30.4115 30.8659 30.217 30.9379 30.0349C31.01 29.8526 31.1171 29.6866 31.2534 29.5458C31.3898 29.4051 31.5527 29.2926 31.7326 29.2147C31.9125 29.137 32.106 29.0954 32.3021 29.0922L40.1574 28.9702C40.3533 28.9666 40.5482 29.0018 40.7305 29.0734C40.913 29.1453 41.0794 29.2523 41.2204 29.3885C41.3612 29.5245 41.4738 29.6872 41.5518 29.8669C41.6297 30.0466 41.6714 30.2398 41.6742 30.4357C41.6778 30.6315 41.6425 30.8261 41.5706 31.0082C41.4987 31.1904 41.3913 31.3566 41.255 31.4974C41.1187 31.6381 40.9558 31.7506 40.7759 31.8285C40.5958 31.9062 40.4023 31.9478 40.2062 31.9507Z" fill="white"/>
<path d="M33.9833 30.4447C33.965 30.5375 33.9197 30.6227 33.8529 30.6898C33.7861 30.7567 33.7008 30.8024 33.6081 30.8211C33.5153 30.8397 33.4191 30.8304 33.3314 30.7946C33.244 30.7586 33.169 30.6975 33.1163 30.6189C33.0634 30.5405 33.0352 30.4482 33.0349 30.3536C33.0348 30.2591 33.0626 30.1666 33.115 30.0877C33.1674 30.009 33.2419 29.9475 33.3293 29.9112C33.4167 29.8747 33.5129 29.865 33.6058 29.8832C33.6675 29.8954 33.7262 29.9194 33.7785 29.9541C33.8309 29.989 33.8759 30.0336 33.911 30.0858C33.9461 30.1379 33.9704 30.1965 33.9829 30.2581C33.9953 30.3195 33.9954 30.3831 33.9833 30.4447Z" fill="#484848"/>
<path d="M39.4687 30.3572C39.4506 30.45 39.4052 30.5354 39.3386 30.6025C39.2718 30.6697 39.1867 30.7156 39.0938 30.7343C39.001 30.753 38.9048 30.7439 38.8171 30.7081C38.7295 30.6721 38.6545 30.6111 38.6017 30.5326C38.5488 30.4542 38.5205 30.3617 38.5201 30.2671C38.5198 30.1726 38.5477 30.0799 38.6001 30.0012C38.6525 29.9223 38.7271 29.8609 38.8146 29.8244C38.9019 29.7881 38.9982 29.7783 39.0911 29.7966C39.2155 29.821 39.3253 29.8937 39.3961 29.9988C39.4667 30.1039 39.493 30.2329 39.4687 30.3572Z" fill="#484848"/>
<path d="M35.3562 30.2242C35.3916 30.2284 35.3738 30.3926 35.4784 30.6174C35.5375 30.7463 35.6238 30.8612 35.7312 30.954C35.8571 31.0647 36.0138 31.1343 36.1804 31.1535C36.3478 31.1642 36.5147 31.1244 36.659 31.0391C36.7812 30.9681 36.887 30.8719 36.9691 30.757C37.1125 30.5575 37.1252 30.39 37.1604 30.3926C37.1748 30.3926 37.1891 30.4346 37.1891 30.5138C37.1859 30.6265 37.1571 30.737 37.1048 30.837C37.0263 30.9881 36.9102 31.1166 36.7678 31.21C36.5916 31.3338 36.3771 31.3913 36.1624 31.3716C35.9478 31.3521 35.747 31.2569 35.5963 31.103C35.4733 30.9855 35.3827 30.8382 35.3334 30.6754C35.2983 30.5668 35.289 30.4516 35.3065 30.3388C35.3208 30.2604 35.3427 30.2217 35.3562 30.2242Z" fill="#484848"/>
<path d="M42.5557 32.4052C42.5474 32.4052 42.6443 32.2537 42.7379 31.9885C42.8542 31.6413 42.9277 31.2812 42.957 30.9162C42.9907 30.5525 42.9992 30.1868 42.9822 29.822C42.9764 29.6813 42.9695 29.5695 42.9628 29.4852C42.9572 29.4445 42.9557 29.4034 42.9586 29.3623C42.9694 29.402 42.9764 29.4426 42.9798 29.4836C42.9915 29.5618 43.0033 29.6754 43.0134 29.8202C43.0398 30.1881 43.0357 30.5575 43.0008 30.9247C42.9711 31.293 42.8926 31.6559 42.7674 32.0037C42.7276 32.1087 42.6797 32.2103 42.6241 32.3076C42.6041 32.342 42.5814 32.3746 42.5557 32.4052Z" fill="white"/>
<path d="M30.0324 29.2856C30.0276 29.3264 30.019 29.3668 30.0063 29.406C29.9954 29.4439 29.9836 29.4901 29.9727 29.5456C29.9616 29.6013 29.9448 29.6618 29.9347 29.7317C29.9051 29.894 29.8854 30.0578 29.8757 30.2224C29.8644 30.4239 29.8671 30.6258 29.8841 30.8268C29.903 31.0276 29.9357 31.2266 29.982 31.4228C30.0206 31.5832 30.0689 31.7412 30.1268 31.8959C30.1495 31.9623 30.1758 32.0204 30.1968 32.0727C30.2179 32.1248 30.2381 32.1685 30.2549 32.2039C30.2741 32.2402 30.29 32.2783 30.3022 32.3175C30.2782 32.2842 30.2573 32.2487 30.2397 32.2116C30.216 32.1695 30.1942 32.1261 30.1748 32.0818C30.1513 32.0314 30.1226 31.9733 30.0983 31.9068C30.0356 31.7525 29.9837 31.5943 29.9432 31.4328C29.8938 31.2349 29.8594 31.0333 29.8403 30.8303C29.823 30.6272 29.8214 30.4232 29.8352 30.2199C29.8469 30.0538 29.8701 29.8888 29.9044 29.7258C29.9169 29.656 29.9347 29.5946 29.949 29.5399C29.9634 29.4852 29.9768 29.4388 29.9895 29.401C30.0007 29.3613 30.015 29.3228 30.0324 29.2856Z" fill="white"/>
<path d="M35.5987 25.1765C35.5923 25.1769 35.5859 25.1769 35.5793 25.1765L35.5229 25.1822C35.4723 25.1873 35.3982 25.1891 35.303 25.2C35.0342 25.2261 34.7676 25.2702 34.5049 25.3321C33.146 25.643 31.9473 26.4385 31.1339 27.5694C30.7408 28.1129 30.4433 28.7192 30.254 29.3624C30.2245 29.4533 30.2085 29.5256 30.1942 29.5736L30.1782 29.6291C30.1766 29.6355 30.1744 29.6417 30.1715 29.6477C30.1704 29.6413 30.1704 29.6347 30.1715 29.6283C30.1715 29.6131 30.1782 29.5947 30.1832 29.572C30.195 29.5232 30.2077 29.4499 30.2346 29.3573C30.3049 29.0958 30.3951 28.84 30.5044 28.5921C30.8645 27.7685 31.413 27.0406 32.1055 26.4667C32.8011 25.8973 33.6205 25.4984 34.4982 25.3017C34.7625 25.2419 35.031 25.2022 35.3012 25.1832C35.3974 25.1747 35.4699 25.1755 35.5221 25.1731H35.5793C35.5929 25.1747 35.5987 25.1765 35.5987 25.1765Z" fill="#484848"/>
<path d="M30.3088 31.656C30.275 31.604 30.2488 31.5472 30.2312 31.4877C30.1313 31.2064 30.0846 30.909 30.0939 30.6108C30.0915 30.5487 30.0989 30.4868 30.1157 30.4272C30.1293 30.4272 30.1108 30.7084 30.1647 31.0484C30.2186 31.3885 30.3214 31.6511 30.3088 31.656Z" fill="#484848"/>
<path d="M28.8904 31.2208C28.8904 31.2208 28.871 31.2074 28.8449 31.1754C28.8078 31.1301 28.7757 31.0806 28.7498 31.0282C28.6597 30.8541 28.6253 30.6566 28.6511 30.4626C28.6769 30.2685 28.7616 30.0869 28.8938 29.9422C28.9325 29.8979 28.9764 29.8584 29.0245 29.8245C29.041 29.8106 29.0597 29.7997 29.0801 29.7925C29.0852 29.7992 29.0093 29.8506 28.9175 29.9608C28.7969 30.105 28.7198 30.2803 28.695 30.4666C28.6702 30.6528 28.6988 30.8422 28.7775 31.013C28.8366 31.1467 28.8963 31.2158 28.8904 31.2208Z" fill="#484848"/>
<path d="M36.5958 22.471C36.5299 22.4638 36.4638 22.4624 36.3978 22.4669C36.3191 22.4738 36.2432 22.4986 36.1756 22.5392C36.1081 22.58 36.0508 22.6357 36.0082 22.7021C35.9655 22.7683 35.9386 22.8435 35.9297 22.9218C35.9205 23.0002 35.9297 23.0794 35.9561 23.1536C35.9788 23.2152 36.007 23.2747 36.0404 23.3312C36.0404 23.3312 36.0235 23.3211 35.9998 23.2942C35.9675 23.2552 35.9418 23.2112 35.9241 23.1638C35.8919 23.0851 35.8792 23 35.8869 22.9154C35.8947 22.8309 35.9228 22.7494 35.9687 22.6781C36.0147 22.6066 36.0772 22.5474 36.151 22.5051C36.2247 22.4629 36.3077 22.439 36.3926 22.4357C36.4431 22.4322 36.4937 22.437 36.5426 22.4499C36.5805 22.4558 36.5958 22.471 36.5958 22.471Z" fill="#484848"/>
<path d="M43.9413 30.1998C43.932 30.2099 43.8014 30.0845 43.6042 29.9902C43.407 29.896 43.2274 29.8682 43.2292 29.8547C43.3665 29.8514 43.5023 29.8845 43.6228 29.9507C43.7493 30.0037 43.8594 30.0898 43.9413 30.1998Z" fill="#484848"/>
<path d="M38.9083 28.6982C38.9083 28.71 37.8733 28.7201 36.5974 28.7201C35.3214 28.7201 34.2858 28.71 34.2858 28.6982C34.2858 28.6863 35.3206 28.6763 36.5974 28.6763C37.8743 28.6763 38.9083 28.6847 38.9083 28.6982Z" fill="#484848"/>
<path d="M34.9642 33.9617C34.9515 33.9652 34.9385 33.9673 34.9254 33.9676L34.8125 33.9777C34.7636 33.9818 34.7037 33.9852 34.6339 33.9869C34.5639 33.9885 34.4846 33.9919 34.3969 33.9869C34.2209 33.9869 34.0118 33.9743 33.78 33.9498C33.5293 33.9207 33.2802 33.8778 33.0343 33.8212C32.7887 33.7623 32.5468 33.6898 32.3094 33.6039C32.1161 33.5332 31.9266 33.4525 31.7414 33.3623C31.6571 33.3253 31.5923 33.2866 31.5307 33.2538C31.4692 33.221 31.417 33.1914 31.3749 33.1697L31.278 33.1106C31.2664 33.1044 31.2557 33.0967 31.2459 33.0879C31.2459 33.0879 31.2594 33.0879 31.2821 33.1031L31.3834 33.1545C31.4263 33.178 31.4793 33.2058 31.5418 33.2386C31.6041 33.2714 31.6749 33.3052 31.755 33.3405C31.9134 33.4146 32.1063 33.4937 32.3239 33.5719C32.7964 33.7412 33.2866 33.8564 33.7851 33.9154C34.0144 33.9423 34.2225 33.9575 34.3969 33.9617C34.4812 33.9668 34.5655 33.9617 34.6339 33.9617C34.7021 33.9617 34.7628 33.9617 34.8117 33.9617H34.9246C34.9376 33.9594 34.951 33.9594 34.9642 33.9617Z" fill="#484848"/>
<path d="M37.0396 23.2034C37.3309 22.9124 37.3309 22.4408 37.0396 22.1498C36.7484 21.8589 36.2761 21.8589 35.9849 22.1498C35.6935 22.4408 35.6935 22.9124 35.9849 23.2034C36.2761 23.4943 36.7484 23.4943 37.0396 23.2034Z" fill="#484848"/>
<path d="M36.6329 22.1231C36.5671 22.1159 36.5009 22.1145 36.4348 22.119C36.3563 22.1259 36.2803 22.1505 36.2127 22.1913C36.1451 22.2321 36.0879 22.2878 36.0453 22.3542C36.0027 22.4204 35.9758 22.4956 35.9668 22.5739C35.9577 22.6523 35.9668 22.7315 35.9933 22.8057C36.016 22.8673 36.0442 22.9268 36.0775 22.9833C36.0775 22.9833 36.0607 22.9732 36.037 22.9463C36.0046 22.9073 35.979 22.8633 35.9612 22.8159C35.929 22.7372 35.9164 22.6521 35.9241 22.5675C35.9319 22.483 35.9599 22.4015 36.0059 22.3302C36.0519 22.2587 36.1144 22.1993 36.1882 22.1572C36.2619 22.115 36.3449 22.0911 36.4298 22.0878C36.4803 22.0843 36.5309 22.0891 36.5797 22.102C36.6177 22.1079 36.6329 22.1231 36.6329 22.1231Z" fill="#484848"/>
</g>
</g>
<path d="M27.233 27.1999C30.7719 27.1999 33.6408 24.3345 33.6408 20.7999C33.6408 17.2653 30.7719 14.3999 27.233 14.3999C23.6941 14.3999 20.8253 17.2653 20.8253 20.7999C20.8253 24.3345 23.6941 27.1999 27.233 27.1999Z" fill="white"/>
<path d="M22.8214 15.4912L20.183 25.6H17.1986L15.5839 18.9472L13.9115 25.6H10.9271L8.36078 15.4912H10.9992L12.4553 22.8496L14.2575 15.4912H16.9679L18.698 22.8496L20.1686 15.4912H22.8214ZM31.6416 21.4528C31.6416 21.6832 31.6272 21.9232 31.5983 22.1728H26.0188C26.0572 22.672 26.2158 23.056 26.4945 23.3248C26.7829 23.584 27.1337 23.7136 27.547 23.7136C28.1622 23.7136 28.5899 23.4544 28.8302 22.936H31.4541C31.3196 23.464 31.0745 23.9392 30.7189 24.3616C30.3728 24.784 29.9355 25.1152 29.4069 25.3552C28.8782 25.5952 28.2871 25.7152 27.6335 25.7152C26.8454 25.7152 26.1437 25.5472 25.5286 25.2112C24.9134 24.8752 24.4328 24.3952 24.0868 23.7712C23.7408 23.1472 23.5678 22.4176 23.5678 21.5824C23.5678 20.7472 23.736 20.0176 24.0724 19.3936C24.4184 18.7696 24.899 18.2896 25.5141 17.9536C26.1293 17.6176 26.8357 17.4496 27.6335 17.4496C28.4121 17.4496 29.1041 17.6128 29.7096 17.9392C30.3152 18.2656 30.7861 18.7312 31.1225 19.336C31.4686 19.9408 31.6416 20.6464 31.6416 21.4528ZM29.1185 20.8048C29.1185 20.3824 28.9743 20.0464 28.686 19.7968C28.3976 19.5472 28.0372 19.4224 27.6047 19.4224C27.1914 19.4224 26.8406 19.5424 26.5522 19.7824C26.2735 20.0224 26.1005 20.3632 26.0332 20.8048H29.1185Z" fill="#484848"/>
<path d="M75.8768 7.32164L72.3589 20.8H68.3797L66.2267 11.9296L63.9968 20.8H60.0176L56.5958 7.32164H60.1137L62.0552 17.1328L64.4582 7.32164H68.0721L70.3789 17.1328L72.3397 7.32164H75.8768ZM88.0213 15.2704C88.0213 15.5776 88.0021 15.8976 87.9636 16.2304H80.5242C80.5755 16.896 80.7869 17.408 81.1586 17.7664C81.543 18.112 82.0108 18.2848 82.5619 18.2848C83.3821 18.2848 83.9523 17.9392 84.2727 17.248H87.7714C87.592 17.952 87.2652 18.5856 86.791 19.1488C86.3296 19.712 85.7465 20.1536 85.0417 20.4736C84.3368 20.7936 83.5487 20.9536 82.6772 20.9536C81.6263 20.9536 80.6908 20.7296 79.8706 20.2816C79.0504 19.8336 78.4096 19.1936 77.9483 18.3616C77.4869 17.5296 77.2562 16.5568 77.2562 15.4432C77.2562 14.3296 77.4805 13.3568 77.929 12.5248C78.3904 11.6928 79.0312 11.0528 79.8514 10.6048C80.6716 10.1568 81.6135 9.93284 82.6772 9.93284C83.7153 9.93284 84.638 10.1504 85.4454 10.5856C86.2527 11.0208 86.8807 11.6416 87.3292 12.448C87.7906 13.2544 88.0213 14.1952 88.0213 15.2704ZM84.6572 14.4064C84.6572 13.8432 84.465 13.3952 84.0805 13.0624C83.696 12.7296 83.2155 12.5632 82.6388 12.5632C82.0877 12.5632 81.6199 12.7232 81.2355 13.0432C80.8638 13.3632 80.6331 13.8176 80.5434 14.4064H84.6572ZM97.0219 20.8L94.2154 15.712H93.4272V20.8H90.14V7.32164H95.6571C96.7208 7.32164 97.6243 7.50724 98.3676 7.87844C99.1237 8.24964 99.6876 8.76164 100.059 9.41444C100.431 10.0544 100.617 10.7712 100.617 11.5648C100.617 12.4608 100.36 13.2608 99.8478 13.9648C99.348 14.6688 98.6047 15.168 97.6179 15.4624L100.732 20.8H97.0219ZM93.4272 13.3888H95.4649C96.0672 13.3888 96.5157 13.2416 96.8105 12.9472C97.1181 12.6528 97.2719 12.2368 97.2719 11.6992C97.2719 11.1872 97.1181 10.784 96.8105 10.4896C96.5157 10.1952 96.0672 10.048 95.4649 10.048H93.4272V13.3888ZM113.176 15.2704C113.176 15.5776 113.157 15.8976 113.118 16.2304H105.679C105.73 16.896 105.942 17.408 106.313 17.7664C106.698 18.112 107.166 18.2848 107.717 18.2848C108.537 18.2848 109.107 17.9392 109.428 17.248H112.926C112.747 17.952 112.42 18.5856 111.946 19.1488C111.484 19.712 110.901 20.1536 110.196 20.4736C109.492 20.7936 108.703 20.9536 107.832 20.9536C106.781 20.9536 105.846 20.7296 105.025 20.2816C104.205 19.8336 103.564 19.1936 103.103 18.3616C102.642 17.5296 102.411 16.5568 102.411 15.4432C102.411 14.3296 102.635 13.3568 103.084 12.5248C103.545 11.6928 104.186 11.0528 105.006 10.6048C105.826 10.1568 106.768 9.93284 107.832 9.93284C108.87 9.93284 109.793 10.1504 110.6 10.5856C111.408 11.0208 112.036 11.6416 112.484 12.448C112.945 13.2544 113.176 14.1952 113.176 15.2704ZM109.812 14.4064C109.812 13.8432 109.62 13.3952 109.235 13.0624C108.851 12.7296 108.37 12.5632 107.794 12.5632C107.242 12.5632 106.775 12.7232 106.39 13.0432C106.019 13.3632 105.788 13.8176 105.698 14.4064H109.812ZM118.582 11.6032C118.902 11.104 119.344 10.7008 119.908 10.3936C120.472 10.0864 121.132 9.93284 121.888 9.93284C122.773 9.93284 123.573 10.1568 124.291 10.6048C125.009 11.0528 125.573 11.6928 125.983 12.5248C126.406 13.3568 126.617 14.3232 126.617 15.424C126.617 16.5248 126.406 17.4976 125.983 18.3424C125.573 19.1744 125.009 19.8208 124.291 20.2816C123.573 20.7296 122.773 20.9536 121.888 20.9536C121.145 20.9536 120.485 20.8 119.908 20.4928C119.344 20.1856 118.902 19.7888 118.582 19.3024V25.9072H115.295V10.0864H118.582V11.6032ZM123.272 15.424C123.272 14.6048 123.042 13.9648 122.58 13.504C122.132 13.0304 121.574 12.7936 120.908 12.7936C120.254 12.7936 119.697 13.0304 119.235 13.504C118.787 13.9776 118.563 14.624 118.563 15.4432C118.563 16.2624 118.787 16.9088 119.235 17.3824C119.697 17.856 120.254 18.0928 120.908 18.0928C121.561 18.0928 122.119 17.856 122.58 17.3824C123.042 16.896 123.272 16.2432 123.272 15.424ZM132.013 6.59204V20.8H128.726V6.59204H132.013ZM134.126 15.424C134.126 14.3232 134.331 13.3568 134.742 12.5248C135.164 11.6928 135.735 11.0528 136.452 10.6048C137.17 10.1568 137.971 9.93284 138.855 9.93284C139.611 9.93284 140.271 10.0864 140.835 10.3936C141.412 10.7008 141.854 11.104 142.162 11.6032V10.0864H145.449V20.8H142.162V19.2832C141.841 19.7824 141.393 20.1856 140.816 20.4928C140.252 20.8 139.592 20.9536 138.836 20.9536C137.965 20.9536 137.17 20.7296 136.452 20.2816C135.735 19.8208 135.164 19.1744 134.742 18.3424C134.331 17.4976 134.126 16.5248 134.126 15.424ZM142.162 15.4432C142.162 14.624 141.931 13.9776 141.47 13.504C141.021 13.0304 140.47 12.7936 139.817 12.7936C139.163 12.7936 138.605 13.0304 138.144 13.504C137.696 13.9648 137.471 14.6048 137.471 15.424C137.471 16.2432 137.696 16.896 138.144 17.3824C138.605 17.856 139.163 18.0928 139.817 18.0928C140.47 18.0928 141.021 17.856 141.47 17.3824C141.931 16.9088 142.162 16.2624 142.162 15.4432ZM159.169 10.0864L152.441 25.888H148.904L151.364 20.4352L147 10.0864H150.672L153.152 16.7872L155.612 10.0864H159.169Z" fill="white"/>
<path d="M64.7398 31.67L63.2512 36.7999H62.4996L61.3058 32.671L60.0679 36.7999L59.3236 36.8073L57.8867 31.67H58.6014L59.7215 36.0198L60.9595 31.67H61.7111L62.8902 36.005L64.0176 31.67H64.7398ZM67.478 32.693C67.7827 32.693 68.0577 32.7593 68.3033 32.8918C68.549 33.0193 68.7406 33.2132 68.8781 33.4732C69.0206 33.7332 69.0918 34.0497 69.0918 34.4226V36.7999H68.4286V34.5183C68.4286 34.1159 68.328 33.8094 68.1264 33.5983C67.9251 33.3825 67.65 33.2745 67.3011 33.2745C66.9474 33.2745 66.665 33.3849 66.4537 33.6057C66.2474 33.8265 66.1442 34.1479 66.1442 34.5698V36.7999H65.4736V31.3535H66.1442V33.3407C66.2768 33.1346 66.4586 32.9751 66.6895 32.8623C66.9253 32.7495 67.1882 32.693 67.478 32.693ZM69.9366 34.7686C69.9366 34.3564 70.0202 33.9958 70.1872 33.6866C70.3542 33.3726 70.5827 33.1297 70.8725 32.958C71.1672 32.7863 71.494 32.7004 71.8525 32.7004C72.2063 32.7004 72.5133 32.7764 72.7737 32.9286C73.0341 33.0807 73.2281 33.2721 73.3558 33.5026V32.7666H74.0337V36.7999H73.3558V36.0492C73.2232 36.2847 73.0242 36.481 72.7589 36.638C72.4986 36.7902 72.1941 36.8662 71.8452 36.8662C71.4867 36.8662 71.1624 36.7778 70.8725 36.6012C70.5827 36.4246 70.3542 36.1767 70.1872 35.8578C70.0202 35.539 69.9366 35.1758 69.9366 34.7686ZM73.3558 34.7759C73.3558 34.4718 73.2945 34.2068 73.1716 33.981C73.0489 33.7553 72.8818 33.5836 72.6705 33.4658C72.4642 33.3431 72.2357 33.2818 71.9852 33.2818C71.7346 33.2818 71.5062 33.3407 71.2999 33.4585C71.0935 33.5762 70.929 33.7479 70.8062 33.9737C70.6834 34.1994 70.6219 34.4644 70.6219 34.7686C70.6219 35.0777 70.6834 35.3476 70.8062 35.5782C70.929 35.8039 71.0935 35.978 71.2999 36.1007C71.5062 36.2185 71.7346 36.2774 71.9852 36.2774C72.2357 36.2774 72.4642 36.2185 72.6705 36.1007C72.8818 35.978 73.0489 35.8039 73.1716 35.5782C73.2945 35.3476 73.3558 35.0801 73.3558 34.7759ZM75.9849 33.3186V35.6959C75.9849 35.8922 76.0267 36.0321 76.1102 36.1154C76.1936 36.194 76.3386 36.2332 76.545 36.2332H77.0387V36.7999H76.4344C76.061 36.7999 75.781 36.714 75.5944 36.5423C75.4077 36.3706 75.3143 36.0884 75.3143 35.6959V33.3186H74.7911V32.7666H75.3143V31.751H75.9849V32.7666H77.0387V33.3186H75.9849ZM79.2807 36.8662C78.9712 36.8662 78.6936 36.8146 78.4481 36.7116C78.2025 36.6036 78.0083 36.4564 77.8659 36.27C77.7235 36.0786 77.6448 35.8602 77.6301 35.615H78.3228C78.3425 35.8161 78.4357 35.9806 78.6028 36.1081C78.7747 36.2356 78.9983 36.2994 79.2734 36.2994C79.5289 36.2994 79.7302 36.243 79.8776 36.1302C80.025 36.0174 80.0987 35.875 80.0987 35.7033C80.0987 35.5266 80.02 35.3966 79.8629 35.3132C79.7057 35.2249 79.4626 35.139 79.1334 35.0556C78.8336 34.977 78.5881 34.8986 78.3965 34.8201C78.2098 34.7367 78.0477 34.6164 77.9101 34.4594C77.7775 34.2975 77.7112 34.0865 77.7112 33.8265C77.7112 33.6204 77.7725 33.4314 77.8954 33.2598C78.0183 33.0881 78.1926 32.953 78.4186 32.855C78.6446 32.7519 78.9025 32.7004 79.1923 32.7004C79.6394 32.7004 80.0005 32.8132 80.2756 33.039C80.5506 33.2647 80.698 33.5738 80.7177 33.9663H80.0471C80.0324 33.7553 79.9464 33.586 79.7892 33.4585C79.6369 33.331 79.4305 33.2671 79.1702 33.2671C78.9294 33.2671 78.7378 33.3186 78.5954 33.4217C78.453 33.5247 78.3817 33.6596 78.3817 33.8265C78.3817 33.959 78.4235 34.0694 78.507 34.1577C78.5954 34.241 78.7036 34.3098 78.8312 34.3638C78.9639 34.4129 79.1457 34.4692 79.3765 34.533C79.6663 34.6116 79.9021 34.69 80.084 34.7686C80.2658 34.8422 80.4205 34.955 80.5482 35.1071C80.6808 35.2593 80.7496 35.458 80.7545 35.7033C80.7545 35.9241 80.6932 36.1228 80.5703 36.2994C80.4474 36.4761 80.2731 36.6159 80.0471 36.719C79.826 36.817 79.5705 36.8662 79.2807 36.8662ZM84.7371 35.6591H82.497L82.0843 36.7999H81.3769L83.2339 31.6994H84.0076L85.8572 36.7999H85.1498L84.7371 35.6591ZM84.5455 35.1145L83.617 32.5238L82.6886 35.1145H84.5455ZM87.3371 33.51C87.4697 33.2794 87.6663 33.0881 87.9266 32.9359C88.1919 32.779 88.499 32.7004 88.8477 32.7004C89.2064 32.7004 89.5306 32.7863 89.8204 32.958C90.1152 33.1297 90.3462 33.3726 90.5131 33.6866C90.6802 33.9958 90.7636 34.3564 90.7636 34.7686C90.7636 35.1758 90.6802 35.539 90.5131 35.8578C90.3462 36.1767 90.1152 36.4246 89.8204 36.6012C89.5306 36.7778 89.2064 36.8662 88.8477 36.8662C88.5039 36.8662 88.1992 36.7902 87.934 36.638C87.6736 36.481 87.4747 36.2871 87.3371 36.0566V38.7135H86.6665V32.7666H87.3371V33.51ZM90.0783 34.7686C90.0783 34.4644 90.017 34.1994 89.8941 33.9737C89.7714 33.7479 89.6043 33.5762 89.393 33.4585C89.1867 33.3407 88.9582 33.2818 88.7077 33.2818C88.4621 33.2818 88.2337 33.3431 88.0224 33.4658C87.8161 33.5836 87.6491 33.7578 87.5213 33.9884C87.3986 34.2142 87.3371 34.4766 87.3371 34.7759C87.3371 35.0801 87.3986 35.3476 87.5213 35.5782C87.6491 35.8039 87.8161 35.978 88.0224 36.1007C88.2337 36.2185 88.4621 36.2774 88.7077 36.2774C88.9582 36.2774 89.1867 36.2185 89.393 36.1007C89.6043 35.978 89.7714 35.8039 89.8941 35.5782C90.017 35.3476 90.0783 35.0777 90.0783 34.7686ZM92.3169 33.51C92.4495 33.2794 92.6461 33.0881 92.9064 32.9359C93.1717 32.779 93.4788 32.7004 93.8275 32.7004C94.1862 32.7004 94.5104 32.7863 94.8002 32.958C95.095 33.1297 95.326 33.3726 95.4929 33.6866C95.66 33.9958 95.7434 34.3564 95.7434 34.7686C95.7434 35.1758 95.66 35.539 95.4929 35.8578C95.326 36.1767 95.095 36.4246 94.8002 36.6012C94.5104 36.7778 94.1862 36.8662 93.8275 36.8662C93.4837 36.8662 93.179 36.7902 92.9138 36.638C92.6534 36.481 92.4545 36.2871 92.3169 36.0566V38.7135H91.6463V32.7666H92.3169V33.51ZM95.0581 34.7686C95.0581 34.4644 94.9968 34.1994 94.8739 33.9737C94.7512 33.7479 94.5841 33.5762 94.3728 33.4585C94.1665 33.3407 93.938 33.2818 93.6875 33.2818C93.4419 33.2818 93.2135 33.3431 93.0022 33.4658C92.7958 33.5836 92.6289 33.7578 92.5011 33.9884C92.3784 34.2142 92.3169 34.4766 92.3169 34.7759C92.3169 35.0801 92.3784 35.3476 92.5011 35.5782C92.6289 35.8039 92.7958 35.978 93.0022 36.1007C93.2135 36.2185 93.4419 36.2774 93.6875 36.2774C93.938 36.2774 94.1665 36.2185 94.3728 36.1007C94.5841 35.978 94.7512 35.8039 94.8739 35.5782C94.9968 35.3476 95.0581 35.0777 95.0581 34.7686ZM101.664 35.7548H99.5192L99.1507 36.7999H98.2738L100.109 31.6774H101.081L102.916 36.7999H102.032L101.664 35.7548ZM101.428 35.0703L100.595 32.693L99.755 35.0703H101.428ZM104.554 31.6847V36.7999H103.714V31.6847H104.554ZM107.291 34.7686C107.291 34.3514 107.375 33.986 107.542 33.6719C107.714 33.353 107.95 33.1076 108.249 32.9359C108.549 32.7642 108.893 32.6783 109.281 32.6783C109.772 32.6783 110.177 32.7961 110.497 33.0316C110.821 33.2622 111.04 33.5934 111.152 34.0252H110.246C110.172 33.8241 110.055 33.667 109.892 33.5542C109.73 33.4414 109.527 33.3849 109.281 33.3849C108.937 33.3849 108.662 33.5076 108.455 33.7529C108.254 33.9934 108.153 34.3319 108.153 34.7686C108.153 35.2052 108.254 35.5463 108.455 35.7916C108.662 36.0369 108.937 36.1596 109.281 36.1596C109.767 36.1596 110.089 35.9462 110.246 35.5193H111.152C111.035 35.9314 110.814 36.2602 110.489 36.5055C110.165 36.746 109.762 36.8662 109.281 36.8662C108.893 36.8662 108.549 36.7802 108.249 36.6086C107.95 36.4319 107.714 36.1866 107.542 35.8726C107.375 35.5537 107.291 35.1857 107.291 34.7686ZM114.09 32.6783C114.399 32.6783 114.675 32.7446 114.915 32.877C115.161 33.0095 115.352 33.2058 115.49 33.4658C115.632 33.7258 115.704 34.0399 115.704 34.4079V36.7999H114.871V34.533C114.871 34.17 114.78 33.8927 114.598 33.7014C114.417 33.505 114.168 33.407 113.854 33.407C113.54 33.407 113.289 33.505 113.102 33.7014C112.921 33.8927 112.83 34.17 112.83 34.533V36.7999H111.99V31.3535H112.83V33.2156C112.972 33.0439 113.152 32.9114 113.368 32.8182C113.589 32.7249 113.83 32.6783 114.09 32.6783ZM116.495 34.7538C116.495 34.3466 116.579 33.986 116.746 33.6719C116.918 33.3578 117.149 33.115 117.438 32.9433C117.733 32.7666 118.057 32.6783 118.411 32.6783C118.73 32.6783 119.008 32.7422 119.244 32.8697C119.485 32.9924 119.676 33.147 119.819 33.3334V32.7446H120.666V36.7999H119.819V36.1964C119.676 36.3878 119.482 36.5473 119.236 36.6748C118.991 36.8023 118.711 36.8662 118.396 36.8662C118.048 36.8662 117.728 36.7778 117.438 36.6012C117.149 36.4196 116.918 36.1694 116.746 35.8505C116.579 35.5266 116.495 35.161 116.495 34.7538ZM119.819 34.7686C119.819 34.4889 119.76 34.246 119.642 34.0399C119.529 33.8338 119.379 33.6769 119.192 33.5689C119.006 33.4609 118.804 33.407 118.588 33.407C118.372 33.407 118.17 33.4609 117.984 33.5689C117.797 33.6719 117.645 33.8265 117.527 34.0326C117.414 34.2337 117.357 34.4742 117.357 34.7538C117.357 35.0335 117.414 35.2788 117.527 35.4898C117.645 35.7009 117.797 35.8628 117.984 35.9756C118.175 36.0836 118.377 36.1375 118.588 36.1375C118.804 36.1375 119.006 36.0836 119.192 35.9756C119.379 35.8676 119.529 35.7106 119.642 35.5046C119.76 35.2935 119.819 35.0482 119.819 34.7686ZM122.749 33.429V35.6738C122.749 35.826 122.784 35.9364 122.853 36.005C122.926 36.0689 123.049 36.1007 123.221 36.1007H123.737V36.7999H123.074C122.695 36.7999 122.405 36.7116 122.204 36.535C122.003 36.3583 121.902 36.0713 121.902 35.6738V33.429H121.423V32.7446H121.902V31.7362H122.749V32.7446H123.737V33.429H122.749ZM127.92 36.8662C127.611 36.8662 127.333 36.8146 127.087 36.7116C126.842 36.6036 126.648 36.4564 126.505 36.27C126.363 36.0786 126.284 35.8602 126.269 35.615H126.962C126.982 35.8161 127.075 35.9806 127.242 36.1081C127.414 36.2356 127.638 36.2994 127.913 36.2994C128.168 36.2994 128.37 36.243 128.517 36.1302C128.664 36.0174 128.738 35.875 128.738 35.7033C128.738 35.5266 128.659 35.3966 128.502 35.3132C128.345 35.2249 128.102 35.139 127.773 35.0556C127.473 34.977 127.227 34.8986 127.036 34.8201C126.849 34.7367 126.687 34.6164 126.549 34.4594C126.417 34.2975 126.35 34.0865 126.35 33.8265C126.35 33.6204 126.412 33.4314 126.535 33.2598C126.658 33.0881 126.832 32.953 127.058 32.855C127.284 32.7519 127.542 32.7004 127.832 32.7004C128.279 32.7004 128.64 32.8132 128.915 33.039C129.19 33.2647 129.337 33.5738 129.357 33.9663H128.686C128.672 33.7553 128.586 33.586 128.428 33.4585C128.276 33.331 128.07 33.2671 127.809 33.2671C127.569 33.2671 127.377 33.3186 127.235 33.4217C127.092 33.5247 127.021 33.6596 127.021 33.8265C127.021 33.959 127.063 34.0694 127.146 34.1577C127.235 34.241 127.343 34.3098 127.471 34.3638C127.603 34.4129 127.785 34.4692 128.016 34.533C128.306 34.6116 128.541 34.69 128.723 34.7686C128.905 34.8422 129.06 34.955 129.187 35.1071C129.32 35.2593 129.389 35.458 129.394 35.7033C129.394 35.9241 129.332 36.1228 129.21 36.2994C129.087 36.4761 128.912 36.6159 128.686 36.719C128.465 36.817 128.21 36.8662 127.92 36.8662ZM133.922 32.7666V36.7999H133.251V36.2038C133.123 36.4098 132.944 36.5718 132.713 36.6895C132.487 36.8023 132.237 36.8588 131.962 36.8588C131.647 36.8588 131.365 36.795 131.114 36.6674C130.864 36.535 130.665 36.3386 130.517 36.0786C130.375 35.8186 130.304 35.5022 130.304 35.1292V32.7666H130.967V35.0409C130.967 35.4383 131.068 35.745 131.269 35.9609C131.47 36.1719 131.745 36.2774 132.094 36.2774C132.453 36.2774 132.735 36.167 132.942 35.9462C133.148 35.7254 133.251 35.4039 133.251 34.982V32.7666H133.922ZM135.725 33.51C135.857 33.2794 136.054 33.0881 136.314 32.9359C136.579 32.779 136.886 32.7004 137.235 32.7004C137.594 32.7004 137.918 32.7863 138.208 32.958C138.503 33.1297 138.733 33.3726 138.901 33.6866C139.068 33.9958 139.151 34.3564 139.151 34.7686C139.151 35.1758 139.068 35.539 138.901 35.8578C138.733 36.1767 138.503 36.4246 138.208 36.6012C137.918 36.7778 137.594 36.8662 137.235 36.8662C136.891 36.8662 136.587 36.7902 136.321 36.638C136.061 36.481 135.862 36.2871 135.725 36.0566V38.7135H135.054V32.7666H135.725V33.51ZM138.466 34.7686C138.466 34.4644 138.404 34.1994 138.282 33.9737C138.159 33.7479 137.992 33.5762 137.78 33.4585C137.574 33.3407 137.346 33.2818 137.095 33.2818C136.85 33.2818 136.621 33.3431 136.41 33.4658C136.203 33.5836 136.036 33.7578 135.909 33.9884C135.786 34.2142 135.725 34.4766 135.725 34.7759C135.725 35.0801 135.786 35.3476 135.909 35.5782C136.036 35.8039 136.203 35.978 136.41 36.1007C136.621 36.2185 136.85 36.2774 137.095 36.2774C137.346 36.2774 137.574 36.2185 137.78 36.1007C137.992 35.978 138.159 35.8039 138.282 35.5782C138.404 35.3476 138.466 35.0777 138.466 34.7686ZM140.704 33.51C140.837 33.2794 141.034 33.0881 141.294 32.9359C141.559 32.779 141.866 32.7004 142.215 32.7004C142.574 32.7004 142.898 32.7863 143.188 32.958C143.482 33.1297 143.713 33.3726 143.88 33.6866C144.047 33.9958 144.131 34.3564 144.131 34.7686C144.131 35.1758 144.047 35.539 143.88 35.8578C143.713 36.1767 143.482 36.4246 143.188 36.6012C142.898 36.7778 142.574 36.8662 142.215 36.8662C141.871 36.8662 141.566 36.7902 141.301 36.638C141.041 36.481 140.842 36.2871 140.704 36.0566V38.7135H140.034V32.7666H140.704V33.51ZM143.446 34.7686C143.446 34.4644 143.384 34.1994 143.261 33.9737C143.138 33.7479 142.972 33.5762 142.76 33.4585C142.554 33.3407 142.325 33.2818 142.075 33.2818C141.829 33.2818 141.601 33.3431 141.39 33.4658C141.183 33.5836 141.016 33.7578 140.889 33.9884C140.766 34.2142 140.704 34.4766 140.704 34.7759C140.704 35.0801 140.766 35.3476 140.889 35.5782C141.016 35.8039 141.183 35.978 141.39 36.1007C141.601 36.2185 141.829 36.2774 142.075 36.2774C142.325 36.2774 142.554 36.2185 142.76 36.1007C142.972 35.978 143.138 35.8039 143.261 35.5782C143.384 35.3476 143.446 35.0777 143.446 34.7686ZM146.775 36.8662C146.396 36.8662 146.053 36.7802 145.743 36.6086C145.439 36.4369 145.198 36.194 145.021 35.8799C144.849 35.561 144.763 35.193 144.763 34.7759C144.763 34.3638 144.851 34.0007 145.028 33.6866C145.21 33.3678 145.456 33.1249 145.765 32.958C146.075 32.7863 146.421 32.7004 146.804 32.7004C147.187 32.7004 147.534 32.7863 147.843 32.958C148.153 33.1249 148.396 33.3652 148.573 33.6793C148.755 33.9934 148.845 34.3588 148.845 34.7759C148.845 35.193 148.752 35.561 148.565 35.8799C148.384 36.194 148.136 36.4369 147.821 36.6086C147.507 36.7802 147.158 36.8662 146.775 36.8662ZM146.775 36.2774C147.015 36.2774 147.241 36.2209 147.453 36.1081C147.664 35.9953 147.833 35.826 147.961 35.6002C148.094 35.3745 148.16 35.0998 148.16 34.7759C148.16 34.4521 148.096 34.1774 147.968 33.9516C147.841 33.7258 147.674 33.5591 147.467 33.4511C147.261 33.3383 147.038 33.2818 146.797 33.2818C146.551 33.2818 146.325 33.3383 146.119 33.4511C145.918 33.5591 145.755 33.7258 145.633 33.9516C145.51 34.1774 145.448 34.4521 145.448 34.7759C145.448 35.1047 145.507 35.3818 145.625 35.6076C145.748 35.8334 145.91 36.0026 146.112 36.1154C146.313 36.2234 146.534 36.2774 146.775 36.2774ZM150.398 33.4217C150.516 33.1911 150.682 33.0119 150.899 32.8844C151.12 32.7569 151.387 32.693 151.702 32.693V33.3849H151.525C150.773 33.3849 150.398 33.7921 150.398 34.6066V36.7999H149.727V32.7666H150.398V33.4217ZM153.294 33.3186V35.6959C153.294 35.8922 153.336 36.0321 153.419 36.1154C153.503 36.194 153.648 36.2332 153.854 36.2332H154.348V36.7999H153.743C153.37 36.7999 153.09 36.714 152.903 36.5423C152.717 36.3706 152.623 36.0884 152.623 35.6959V33.3186H152.1V32.7666H152.623V31.751H153.294V32.7666H154.348V33.3186H153.294Z" fill="white"/>
<path d="M98.0233 37.5359H123.958V37.9039H98.0233V37.5359Z" fill="white"/>
</svg>
