<svg width="103" height="25" viewBox="0 0 103 25" fill="none" xmlns="http://www.w3.org/2000/svg">
<path d="M11.7909 2.56494C5.60593 2.56494 0.574097 7.3319 0.574097 13.1914C0.574097 15.2396 1.18952 17.2236 2.35681 18.9392C2.13584 21.5119 1.5436 23.4219 0.683647 24.3268C0.62828 24.3851 0.59173 24.4603 0.579159 24.5417C0.566589 24.6232 0.578634 24.7067 0.613592 24.7805C0.648551 24.8543 0.704657 24.9147 0.773985 24.9531C0.843313 24.9915 0.922359 25.0061 0.99996 24.9947C1.15139 24.9722 4.66896 24.4393 7.21329 22.8934C8.65801 23.507 10.197 23.8179 11.7909 23.8179C17.9758 23.8179 23.0076 19.0509 23.0076 13.1914C23.0076 7.3319 17.9758 2.56494 11.7909 2.56494ZM6.55637 14.7657C5.73156 14.7657 5.0608 14.0596 5.0608 13.1914C5.0608 12.3232 5.73156 11.6171 6.55637 11.6171C7.38117 11.6171 8.05193 12.3232 8.05193 13.1914C8.05193 14.0596 7.38117 14.7657 6.55637 14.7657ZM11.7909 14.7657C10.966 14.7657 10.2953 14.0596 10.2953 13.1914C10.2953 12.3232 10.966 11.6171 11.7909 11.6171C12.6157 11.6171 13.2864 12.3232 13.2864 13.1914C13.2864 14.0596 12.6157 14.7657 11.7909 14.7657ZM17.0253 14.7657C16.2005 14.7657 15.5298 14.0596 15.5298 13.1914C15.5298 12.3232 16.2005 11.6171 17.0253 11.6171C17.8501 11.6171 18.5209 12.3232 18.5209 13.1914C18.5209 14.0596 17.8501 14.7657 17.0253 14.7657Z" fill="#18CB96"/>
<circle cx="12.145" cy="12.4829" r="11.8071" fill="#18CB96"/>
<path d="M16.7856 18.2003C16.7856 21.8517 19.5999 24.8223 23.0591 24.8223C24.2682 24.8223 25.4395 24.4589 26.4523 23.7698C27.9712 23.9003 29.0988 24.2499 29.633 24.7576C29.6674 24.7903 29.7118 24.8119 29.7599 24.8193C29.8079 24.8267 29.8572 24.8196 29.9008 24.7989C29.9444 24.7783 29.98 24.7452 30.0027 24.7043C30.0254 24.6633 30.034 24.6167 30.0273 24.5709C30.014 24.4815 29.6994 22.4048 28.7867 20.9027C29.149 20.0498 29.3325 19.1413 29.3325 18.2003C29.3325 14.549 26.5183 11.5784 23.0591 11.5784C19.5999 11.5784 16.7856 14.549 16.7856 18.2003ZM23.9885 21.2906C23.9885 21.7775 23.5716 22.1735 23.0591 22.1735C22.5465 22.1735 22.1297 21.7775 22.1297 21.2906C22.1297 20.8036 22.5465 20.4077 23.0591 20.4077C23.5716 20.4077 23.9885 20.8036 23.9885 21.2906ZM23.9885 18.2003C23.9885 18.6873 23.5716 19.0833 23.0591 19.0833C22.5465 19.0833 22.1297 18.6873 22.1297 18.2003C22.1297 17.7134 22.5465 17.3174 23.0591 17.3174C23.5716 17.3174 23.9885 17.7134 23.9885 18.2003ZM23.9885 15.1101C23.9885 15.597 23.5716 15.993 23.0591 15.993C22.5465 15.993 22.1297 15.597 22.1297 15.1101C22.1297 14.6232 22.5465 14.2272 23.0591 14.2272C23.5716 14.2272 23.9885 14.6232 23.9885 15.1101Z" fill="#17635B"/>
<ellipse cx="22.6409" cy="17.9912" rx="6.97044" ry="6.97045" transform="rotate(-90 22.6409 17.9912)" fill="#17635B"/>
<mask id="mask0_23_564" style="mask-type:luminance" maskUnits="userSpaceOnUse" x="0" y="0" width="25" height="25">
<path d="M0 0H24.3243V24.3243H0V0Z" fill="white"/>
</mask>
<g mask="url(#mask0_23_564)">
<mask id="mask1_23_564" style="mask-type:luminance" maskUnits="userSpaceOnUse" x="0" y="0" width="25" height="25">
<path d="M12.1613 0C5.4445 0 0 5.44626 0 12.163C0 18.8798 5.4445 24.3243 12.1613 24.3243C18.8798 24.3243 24.3243 18.8798 24.3243 12.163C24.3243 5.44626 18.8798 0 12.1613 0Z" fill="white"/>
</mask>
<g mask="url(#mask1_23_564)">
<path d="M0 0H24.3243V24.3243H0V0Z" fill="#18CB96"/>
</g>
</g>
<mask id="mask2_23_564" style="mask-type:luminance" maskUnits="userSpaceOnUse" x="15" y="10" width="15" height="15">
<path d="M15.51 10.6409H29.8691V25H15.51V10.6409Z" fill="white"/>
</mask>
<g mask="url(#mask2_23_564)">
<mask id="mask3_23_564" style="mask-type:luminance" maskUnits="userSpaceOnUse" x="15" y="10" width="15" height="15">
<path d="M22.6896 10.6409C18.725 10.6409 15.51 13.8558 15.51 17.8204C15.51 21.785 18.725 25 22.6896 25C26.6542 25 29.8691 21.785 29.8691 17.8204C29.8691 13.8558 26.6542 10.6409 22.6896 10.6409Z" fill="white"/>
</mask>
<g mask="url(#mask3_23_564)">
<path d="M15.51 10.6409H29.8691V25H15.51V10.6409Z" fill="#17635B"/>
<path d="M21.178 21.9609H24.4502C24.6638 21.9609 24.8369 21.7878 24.8369 21.5743V21.518C24.8369 21.3044 24.6638 21.1313 24.4502 21.1313H21.178C20.9645 21.1313 20.7913 21.3044 20.7913 21.518V21.5743C20.7913 21.7878 20.9645 21.9609 21.178 21.9609Z" fill="white"/>
<path d="M22.6732 15.8262H22.9557V14.3979H22.6732V15.8262Z" fill="white"/>
<path d="M27.134 20.0784C27.58 19.9724 27.8557 19.5248 27.7497 19.0788C27.6436 18.6327 27.1961 18.357 26.75 18.4631C26.304 18.5691 26.0283 19.0166 26.1343 19.4627C26.2404 19.9087 26.6879 20.1844 27.134 20.0784Z" fill="white"/>
<path d="M18.7457 20.0247C19.1928 19.9232 19.4731 19.4786 19.3717 19.0314C19.2703 18.5843 18.8256 18.3041 18.3784 18.4055C17.9313 18.5069 17.6511 18.9516 17.7525 19.3987C17.8539 19.8458 18.2986 20.1261 18.7457 20.0247Z" fill="white"/>
<path d="M22.65 15.5165C22.65 15.5165 19.2747 15.476 18.7412 18.4015C18.2078 21.3271 21.0613 21.3797 21.8825 21.4349C22.2544 21.4602 23.0509 21.4628 23.7538 21.4502C25.3099 21.4233 26.4094 21.1224 26.7835 19.6788C26.828 19.5096 26.856 19.3364 26.8671 19.1617C26.9655 17.5771 25.896 15.4386 22.65 15.5165Z" fill="white"/>
<path d="M25.0984 19.9692L20.1948 20.0455C20.0724 20.0477 19.9508 20.0257 19.837 19.9808C19.7232 19.9359 19.6193 19.869 19.5313 19.7839C19.4434 19.6989 19.3731 19.5973 19.3244 19.485C19.2758 19.3727 19.2497 19.2519 19.2478 19.1296C19.2457 19.0072 19.2678 18.8856 19.3127 18.7718C19.3577 18.6579 19.4246 18.5541 19.5097 18.4661C19.5948 18.3782 19.6965 18.3079 19.8088 18.2592C19.9211 18.2106 20.0419 18.1846 20.1643 18.1826L25.0679 18.1064C25.1902 18.1041 25.3119 18.1261 25.4257 18.1709C25.5396 18.2158 25.6435 18.2827 25.7315 18.3678C25.8194 18.4528 25.8897 18.5545 25.9384 18.6668C25.987 18.7791 26.013 18.8999 26.0148 19.0223C26.017 19.1447 25.995 19.2663 25.9501 19.3801C25.9051 19.494 25.8382 19.5979 25.7531 19.6859C25.668 19.7738 25.5663 19.8441 25.454 19.8928C25.3416 19.9414 25.2208 19.9674 25.0984 19.9692Z" fill="#17635B"/>
<path d="M21.2138 19.0281C21.2024 19.0861 21.1741 19.1394 21.1324 19.1813C21.0907 19.2232 21.0375 19.2517 20.9796 19.2634C20.9217 19.275 20.8616 19.2693 20.8069 19.2468C20.7523 19.2243 20.7055 19.1861 20.6726 19.1371C20.6396 19.088 20.622 19.0303 20.6218 18.9712C20.6217 18.9121 20.6391 18.8543 20.6718 18.8051C20.7045 18.7558 20.751 18.7174 20.8056 18.6947C20.8601 18.6719 20.9202 18.6658 20.9782 18.6772C21.0167 18.6848 21.0533 18.6998 21.086 18.7216C21.1187 18.7433 21.1468 18.7712 21.1687 18.8038C21.1906 18.8364 21.2058 18.873 21.2136 18.9115C21.2213 18.95 21.2214 18.9896 21.2138 19.0281Z" fill="white"/>
<path d="M24.638 18.9734C24.6267 19.0314 24.5984 19.0848 24.5568 19.1268C24.5151 19.1687 24.462 19.1974 24.404 19.2091C24.3461 19.2209 24.286 19.2151 24.2313 19.1927C24.1766 19.1702 24.1298 19.1321 24.0968 19.083C24.0638 19.034 24.0461 18.9762 24.0459 18.9171C24.0457 18.858 24.0631 18.8002 24.0958 18.7509C24.1285 18.7017 24.1751 18.6632 24.2297 18.6405C24.2842 18.6177 24.3443 18.6116 24.4023 18.623C24.48 18.6383 24.5485 18.6838 24.5927 18.7495C24.6368 18.8152 24.6532 18.8957 24.638 18.9734Z" fill="white"/>
<path d="M22.0708 18.8902C22.0929 18.8928 22.0818 18.9954 22.1471 19.1359C22.184 19.2165 22.2379 19.2883 22.3049 19.3463C22.3835 19.4155 22.4813 19.459 22.5853 19.471C22.6898 19.4777 22.794 19.4528 22.8841 19.3995C22.9604 19.3551 23.0264 19.295 23.0777 19.2232C23.1672 19.0985 23.1751 18.9938 23.1971 18.9954C23.2061 18.9954 23.215 19.0217 23.215 19.0712C23.213 19.1416 23.195 19.2107 23.1624 19.2732C23.1134 19.3676 23.0409 19.4479 22.952 19.5063C22.842 19.5837 22.7081 19.6196 22.5741 19.6073C22.4401 19.5951 22.3148 19.5356 22.2207 19.4394C22.1439 19.366 22.0874 19.2739 22.0566 19.1722C22.0347 19.1043 22.0289 19.0323 22.0398 18.9618C22.0487 18.9128 22.0624 18.8886 22.0708 18.8902Z" fill="white"/>
<path d="M26.5651 20.2534C26.5599 20.2534 26.6204 20.1587 26.6788 19.9929C26.7514 19.7759 26.7973 19.5508 26.8156 19.3227C26.8366 19.0954 26.8419 18.8669 26.8313 18.6388C26.8277 18.5509 26.8234 18.481 26.8192 18.4284C26.8157 18.4029 26.8148 18.3772 26.8166 18.3516C26.8233 18.3763 26.8277 18.4017 26.8298 18.4273C26.8371 18.4762 26.8445 18.5473 26.8508 18.6378C26.8673 18.8676 26.8647 19.0985 26.8429 19.328C26.8244 19.5582 26.7754 19.785 26.6972 20.0024C26.6724 20.068 26.6425 20.1315 26.6078 20.1923C26.5953 20.2139 26.5811 20.2343 26.5651 20.2534Z" fill="#17635B"/>
<path d="M18.7475 18.3037C18.7445 18.3293 18.7391 18.3545 18.7312 18.3789C18.7244 18.4026 18.717 18.4315 18.7102 18.4663C18.7033 18.501 18.6928 18.5389 18.6865 18.5825C18.668 18.6839 18.6557 18.7864 18.6497 18.8892C18.6426 19.0151 18.6443 19.1413 18.6549 19.267C18.6667 19.3924 18.6871 19.5168 18.716 19.6394C18.7401 19.7397 18.7703 19.8385 18.8064 19.9351C18.8206 19.9767 18.837 20.013 18.8501 20.0456C18.8633 20.0782 18.8759 20.1055 18.8864 20.1276C18.8984 20.1504 18.9083 20.1741 18.9159 20.1987C18.9009 20.1778 18.8879 20.1556 18.8769 20.1324C18.8621 20.1061 18.8485 20.079 18.8364 20.0514C18.8217 20.0198 18.8038 19.9835 18.7886 19.9419C18.7495 19.8456 18.7171 19.7466 18.6918 19.6457C18.661 19.522 18.6395 19.3961 18.6276 19.2691C18.6168 19.1422 18.6158 19.0147 18.6244 18.8877C18.6317 18.7839 18.6462 18.6807 18.6676 18.5789C18.6754 18.5352 18.6865 18.4968 18.6954 18.4626C18.7044 18.4284 18.7128 18.3995 18.7207 18.3758C18.7277 18.3511 18.7366 18.327 18.7475 18.3037Z" fill="#17635B"/>
<path d="M22.2222 15.7353C22.2182 15.7356 22.2142 15.7356 22.2101 15.7353L22.1749 15.7389C22.1433 15.7421 22.097 15.7432 22.0376 15.75C21.8698 15.7663 21.7034 15.7939 21.5394 15.8326C20.6911 16.0269 19.9428 16.5241 19.4351 17.2309C19.1897 17.5706 19.004 17.9495 18.8858 18.3515C18.8674 18.4083 18.8574 18.4535 18.8485 18.4835L18.8385 18.5182C18.8375 18.5222 18.8361 18.5261 18.8343 18.5298C18.8336 18.5258 18.8336 18.5217 18.8343 18.5177C18.8343 18.5082 18.8385 18.4967 18.8416 18.4825C18.849 18.452 18.8569 18.4062 18.8737 18.3483C18.9176 18.1849 18.9739 18.025 19.0421 17.8701C19.2669 17.3553 19.6093 16.9004 20.0416 16.5417C20.4758 16.1858 20.9873 15.9365 21.5352 15.8136C21.7002 15.7762 21.8678 15.7514 22.0365 15.7395C22.0965 15.7342 22.1418 15.7347 22.1744 15.7332H22.2101C22.2186 15.7342 22.2222 15.7347 22.2222 15.7353Z" fill="white"/>
<path d="M18.92 19.7852C18.8989 19.7526 18.8826 19.7172 18.8716 19.68C18.8092 19.5041 18.7801 19.3182 18.7859 19.1318C18.7844 19.0931 18.789 19.0544 18.7995 19.0171C18.808 19.0171 18.7964 19.1928 18.8301 19.4053C18.8637 19.6179 18.9279 19.782 18.92 19.7852Z" fill="white"/>
<path d="M18.0346 19.5131C18.0346 19.5131 18.0225 19.5047 18.0062 19.4847C17.983 19.4564 17.963 19.4255 17.9468 19.3927C17.8906 19.2839 17.8691 19.1605 17.8852 19.0392C17.9013 18.9179 17.9542 18.8044 18.0367 18.714C18.0609 18.6863 18.0883 18.6616 18.1183 18.6404C18.1286 18.6317 18.1403 18.6249 18.153 18.6204C18.1562 18.6246 18.1088 18.6567 18.0515 18.7256C17.9762 18.8157 17.9281 18.9253 17.9126 19.0417C17.8971 19.1581 17.915 19.2765 17.9641 19.3832C18.001 19.4668 18.0383 19.51 18.0346 19.5131Z" fill="white"/>
<path d="M22.8446 14.0445C22.8035 14.04 22.7622 14.0391 22.721 14.0419C22.6719 14.0462 22.6245 14.0617 22.5823 14.0872C22.5402 14.1126 22.5044 14.1474 22.4778 14.1889C22.4512 14.2303 22.4344 14.2773 22.4288 14.3263C22.4231 14.3752 22.4288 14.4248 22.4453 14.4712C22.4595 14.5097 22.4771 14.5468 22.4979 14.5822C22.4979 14.5822 22.4874 14.5759 22.4726 14.559C22.4524 14.5347 22.4364 14.5071 22.4253 14.4775C22.4052 14.4284 22.3973 14.3751 22.4021 14.3223C22.407 14.2694 22.4245 14.2185 22.4532 14.1739C22.4819 14.1292 22.5209 14.0922 22.567 14.0658C22.613 14.0394 22.6648 14.0246 22.7178 14.0224C22.7493 14.0202 22.7809 14.0233 22.8114 14.0314C22.8351 14.035 22.8446 14.0429 22.8446 14.0445Z" fill="white"/>
<path d="M27.43 18.875C27.4242 18.8813 27.3427 18.803 27.2196 18.744C27.0965 18.6851 26.9844 18.6677 26.9855 18.6593C27.0712 18.6572 27.156 18.6779 27.2312 18.7193C27.3102 18.7524 27.3789 18.8062 27.43 18.875Z" fill="white"/>
<path d="M24.2882 17.9363C24.2882 17.9437 23.6421 17.95 22.8456 17.95C22.0491 17.95 21.4026 17.9437 21.4026 17.9363C21.4026 17.9289 22.0486 17.9226 22.8456 17.9226C23.6427 17.9226 24.2882 17.9279 24.2882 17.9363Z" fill="white"/>
<path d="M21.8261 21.226C21.8182 21.2282 21.8101 21.2295 21.8019 21.2297L21.7314 21.236C21.7009 21.2386 21.6635 21.2407 21.6199 21.2418C21.5762 21.2428 21.5267 21.2449 21.472 21.2418C21.3621 21.2418 21.2316 21.2339 21.0869 21.2186C20.9304 21.2004 20.7749 21.1736 20.6214 21.1382C20.4681 21.1014 20.3171 21.0561 20.1689 21.0024C20.0482 20.9582 19.9299 20.9078 19.8143 20.8514C19.7617 20.8283 19.7212 20.8041 19.6828 20.7836C19.6444 20.7631 19.6118 20.7446 19.5855 20.731L19.525 20.6941C19.5178 20.6902 19.5111 20.6854 19.505 20.6799C19.505 20.6799 19.5134 20.6799 19.5276 20.6894L19.5908 20.7215C19.6176 20.7362 19.6507 20.7536 19.6897 20.7741C19.7286 20.7946 19.7728 20.8157 19.8228 20.8378C19.9217 20.8841 20.0421 20.9335 20.1779 20.9824C20.4729 21.0882 20.7789 21.1602 21.0901 21.1971C21.2332 21.2139 21.3631 21.2234 21.472 21.226C21.5246 21.2292 21.5772 21.226 21.6199 21.226C21.6625 21.226 21.7004 21.226 21.7309 21.226H21.8014C21.8095 21.2246 21.8179 21.2246 21.8261 21.226Z" fill="white"/>
<path d="M23.1217 14.5021C23.3035 14.3202 23.3035 14.0255 23.1217 13.8436C22.9399 13.6618 22.6451 13.6618 22.4633 13.8436C22.2814 14.0255 22.2814 14.3202 22.4633 14.5021C22.6451 14.6839 22.9399 14.6839 23.1217 14.5021Z" fill="white"/>
<path d="M22.8678 13.827C22.8267 13.8225 22.7854 13.8216 22.7441 13.8244C22.6951 13.8287 22.6477 13.8441 22.6055 13.8696C22.5633 13.8951 22.5276 13.9299 22.501 13.9714C22.4744 14.0128 22.4576 14.0598 22.452 14.1087C22.4463 14.1577 22.452 14.2072 22.4685 14.2536C22.4827 14.2921 22.5003 14.3293 22.5211 14.3646C22.5211 14.3646 22.5106 14.3583 22.4958 14.3415C22.4756 14.3171 22.4596 14.2896 22.4485 14.26C22.4284 14.2108 22.4205 14.1576 22.4253 14.1047C22.4302 14.0519 22.4477 14.001 22.4764 13.9564C22.5051 13.9117 22.5441 13.8746 22.5902 13.8483C22.6362 13.8219 22.688 13.807 22.741 13.8049C22.7725 13.8027 22.8041 13.8057 22.8346 13.8138C22.8583 13.8175 22.8678 13.8254 22.8678 13.827Z" fill="white"/>
</g>
</g>
<circle cx="17" cy="13" r="4" fill="#18CB96"/>
<path d="M14.2461 9.682L12.5991 16H10.7361L9.72814 11.842L8.68414 16H6.82114L5.21914 9.682H6.86614L7.77514 14.281L8.90014 9.682H10.5921L11.6721 14.281L12.5901 9.682H14.2461ZM19.752 13.408C19.752 13.552 19.743 13.702 19.725 13.858H16.242C16.266 14.17 16.365 14.41 16.539 14.578C16.719 14.74 16.938 14.821 17.196 14.821C17.58 14.821 17.847 14.659 17.997 14.335H19.635C19.551 14.665 19.398 14.962 19.176 15.226C18.96 15.49 18.687 15.697 18.357 15.847C18.027 15.997 17.658 16.072 17.25 16.072C16.758 16.072 16.32 15.967 15.936 15.757C15.552 15.547 15.252 15.247 15.036 14.857C14.82 14.467 14.712 14.011 14.712 13.489C14.712 12.967 14.817 12.511 15.027 12.121C15.243 11.731 15.543 11.431 15.927 11.221C16.311 11.011 16.752 10.906 17.25 10.906C17.736 10.906 18.168 11.008 18.546 11.212C18.924 11.416 19.218 11.707 19.428 12.085C19.644 12.463 19.752 12.904 19.752 13.408ZM18.177 13.003C18.177 12.739 18.087 12.529 17.907 12.373C17.727 12.217 17.502 12.139 17.232 12.139C16.974 12.139 16.755 12.214 16.575 12.364C16.401 12.514 16.293 12.727 16.251 13.003H18.177Z" fill="white"/>
<path d="M47.3655 4.576L45.1695 13H42.6855L41.3415 7.456L39.9495 13H37.4655L35.3295 4.576H37.5255L38.7375 10.708L40.2375 4.576H42.4935L43.9335 10.708L45.1575 4.576H47.3655ZM54.9466 9.544C54.9466 9.736 54.9346 9.936 54.9106 10.144H50.2666C50.2986 10.56 50.4306 10.88 50.6626 11.104C50.9026 11.32 51.1946 11.428 51.5386 11.428C52.0506 11.428 52.4066 11.212 52.6066 10.78H54.7906C54.6786 11.22 54.4746 11.616 54.1786 11.968C53.8906 12.32 53.5266 12.596 53.0866 12.796C52.6466 12.996 52.1546 13.096 51.6106 13.096C50.9546 13.096 50.3706 12.956 49.8586 12.676C49.3466 12.396 48.9466 11.996 48.6586 11.476C48.3706 10.956 48.2266 10.348 48.2266 9.652C48.2266 8.956 48.3666 8.348 48.6466 7.828C48.9346 7.308 49.3346 6.908 49.8466 6.628C50.3586 6.348 50.9466 6.208 51.6106 6.208C52.2586 6.208 52.8346 6.344 53.3386 6.616C53.8426 6.888 54.2346 7.276 54.5146 7.78C54.8026 8.284 54.9466 8.872 54.9466 9.544ZM52.8466 9.004C52.8466 8.652 52.7266 8.372 52.4866 8.164C52.2466 7.956 51.9466 7.852 51.5866 7.852C51.2426 7.852 50.9506 7.952 50.7106 8.152C50.4786 8.352 50.3346 8.636 50.2786 9.004H52.8466ZM60.5652 13L58.8132 9.82H58.3212V13H56.2692V4.576H59.7132C60.3772 4.576 60.9412 4.692 61.4052 4.924C61.8772 5.156 62.2292 5.476 62.4612 5.884C62.6932 6.284 62.8092 6.732 62.8092 7.228C62.8092 7.788 62.6492 8.288 62.3292 8.728C62.0172 9.168 61.5532 9.48 60.9372 9.664L62.8812 13H60.5652ZM58.3212 8.368H59.5932C59.9692 8.368 60.2492 8.276 60.4332 8.092C60.6252 7.908 60.7212 7.648 60.7212 7.312C60.7212 6.992 60.6252 6.74 60.4332 6.556C60.2492 6.372 59.9692 6.28 59.5932 6.28H58.3212V8.368ZM70.6493 9.544C70.6493 9.736 70.6373 9.936 70.6133 10.144H65.9693C66.0013 10.56 66.1333 10.88 66.3653 11.104C66.6053 11.32 66.8973 11.428 67.2413 11.428C67.7533 11.428 68.1093 11.212 68.3093 10.78H70.4933C70.3813 11.22 70.1773 11.616 69.8813 11.968C69.5933 12.32 69.2293 12.596 68.7893 12.796C68.3493 12.996 67.8573 13.096 67.3133 13.096C66.6573 13.096 66.0733 12.956 65.5613 12.676C65.0493 12.396 64.6493 11.996 64.3613 11.476C64.0733 10.956 63.9293 10.348 63.9293 9.652C63.9293 8.956 64.0693 8.348 64.3493 7.828C64.6373 7.308 65.0373 6.908 65.5493 6.628C66.0613 6.348 66.6493 6.208 67.3133 6.208C67.9613 6.208 68.5373 6.344 69.0413 6.616C69.5453 6.888 69.9373 7.276 70.2173 7.78C70.5053 8.284 70.6493 8.872 70.6493 9.544ZM68.5493 9.004C68.5493 8.652 68.4293 8.372 68.1893 8.164C67.9493 7.956 67.6493 7.852 67.2893 7.852C66.9453 7.852 66.6533 7.952 66.4133 8.152C66.1813 8.352 66.0373 8.636 65.9813 9.004H68.5493ZM74.0238 7.252C74.2238 6.94 74.4998 6.688 74.8518 6.496C75.2038 6.304 75.6158 6.208 76.0878 6.208C76.6398 6.208 77.1398 6.348 77.5878 6.628C78.0358 6.908 78.3878 7.308 78.6438 7.828C78.9078 8.348 79.0398 8.952 79.0398 9.64C79.0398 10.328 78.9078 10.936 78.6438 11.464C78.3878 11.984 78.0358 12.388 77.5878 12.676C77.1398 12.956 76.6398 13.096 76.0878 13.096C75.6238 13.096 75.2118 13 74.8518 12.808C74.4998 12.616 74.2238 12.368 74.0238 12.064V16.192H71.9718V6.304H74.0238V7.252ZM76.9518 9.64C76.9518 9.128 76.8078 8.728 76.5198 8.44C76.2398 8.144 75.8918 7.996 75.4758 7.996C75.0678 7.996 74.7198 8.144 74.4318 8.44C74.1518 8.736 74.0118 9.14 74.0118 9.652C74.0118 10.164 74.1518 10.568 74.4318 10.864C74.7198 11.16 75.0678 11.308 75.4758 11.308C75.8838 11.308 76.2318 11.16 76.5198 10.864C76.8078 10.56 76.9518 10.152 76.9518 9.64ZM82.4084 4.12V13H80.3564V4.12H82.4084ZM83.7274 9.64C83.7274 8.952 83.8554 8.348 84.1114 7.828C84.3754 7.308 84.7314 6.908 85.1794 6.628C85.6274 6.348 86.1274 6.208 86.6794 6.208C87.1514 6.208 87.5634 6.304 87.9154 6.496C88.2754 6.688 88.5514 6.94 88.7434 7.252V6.304H90.7954V13H88.7434V12.052C88.5434 12.364 88.2634 12.616 87.9034 12.808C87.5514 13 87.1394 13.096 86.6674 13.096C86.1234 13.096 85.6274 12.956 85.1794 12.676C84.7314 12.388 84.3754 11.984 84.1114 11.464C83.8554 10.936 83.7274 10.328 83.7274 9.64ZM88.7434 9.652C88.7434 9.14 88.5994 8.736 88.3114 8.44C88.0314 8.144 87.6874 7.996 87.2794 7.996C86.8714 7.996 86.5234 8.144 86.2354 8.44C85.9554 8.728 85.8154 9.128 85.8154 9.64C85.8154 10.152 85.9554 10.56 86.2354 10.864C86.5234 11.16 86.8714 11.308 87.2794 11.308C87.6874 11.308 88.0314 11.16 88.3114 10.864C88.5994 10.568 88.7434 10.164 88.7434 9.652ZM99.3599 6.304L95.1599 16.18H92.9519L94.4879 12.772L91.7639 6.304H94.0559L95.6039 10.492L97.1399 6.304H99.3599Z" fill="black"/>
<path d="M40.4133 19.7938L39.4841 23H39.0149L38.2697 20.4194L37.4969 23L37.0323 23.0046L36.1353 19.7938H36.5815L37.2807 22.5124L38.0535 19.7938H38.5227L39.2587 22.5032L39.9625 19.7938H40.4133ZM42.1226 20.4332C42.3128 20.4332 42.4845 20.4746 42.6378 20.5574C42.7912 20.6371 42.9108 20.7583 42.9966 20.9208C43.0856 21.0833 43.13 21.2811 43.13 21.5142V23H42.716V21.574C42.716 21.3225 42.6532 21.1309 42.5274 20.999C42.4017 20.8641 42.23 20.7966 42.0122 20.7966C41.7914 20.7966 41.6151 20.8656 41.4832 21.0036C41.3544 21.1416 41.29 21.3425 41.29 21.6062V23H40.8714V19.596H41.29V20.838C41.3728 20.7092 41.4863 20.6095 41.6304 20.539C41.7776 20.4685 41.9417 20.4332 42.1226 20.4332ZM43.6574 21.7304C43.6574 21.4728 43.7096 21.2474 43.8138 21.0542C43.9181 20.8579 44.0607 20.7061 44.2416 20.5988C44.4256 20.4915 44.6296 20.4378 44.8534 20.4378C45.0742 20.4378 45.2659 20.4853 45.4284 20.5804C45.591 20.6755 45.7121 20.7951 45.7918 20.9392V20.4792H46.215V23H45.7918V22.5308C45.709 22.678 45.5848 22.8007 45.4192 22.8988C45.2567 22.9939 45.0666 23.0414 44.8488 23.0414C44.625 23.0414 44.4226 22.9862 44.2416 22.8758C44.0607 22.7654 43.9181 22.6105 43.8138 22.4112C43.7096 22.2119 43.6574 21.9849 43.6574 21.7304ZM45.7918 21.735C45.7918 21.5449 45.7535 21.3793 45.6768 21.2382C45.6002 21.0971 45.4959 20.9898 45.364 20.9162C45.2352 20.8395 45.0926 20.8012 44.9362 20.8012C44.7798 20.8012 44.6372 20.838 44.5084 20.9116C44.3796 20.9852 44.2769 21.0925 44.2002 21.2336C44.1236 21.3747 44.0852 21.5403 44.0852 21.7304C44.0852 21.9236 44.1236 22.0923 44.2002 22.2364C44.2769 22.3775 44.3796 22.4863 44.5084 22.563C44.6372 22.6366 44.7798 22.6734 44.9362 22.6734C45.0926 22.6734 45.2352 22.6366 45.364 22.563C45.4959 22.4863 45.6002 22.3775 45.6768 22.2364C45.7535 22.0923 45.7918 21.9251 45.7918 21.735ZM47.433 20.8242V22.31C47.433 22.4327 47.4591 22.5201 47.5112 22.5722C47.5633 22.6213 47.6538 22.6458 47.7826 22.6458H48.0908V23H47.7136C47.4805 23 47.3057 22.9463 47.1892 22.839C47.0727 22.7317 47.0144 22.5553 47.0144 22.31V20.8242H46.6878V20.4792H47.0144V19.8444H47.433V20.4792H48.0908V20.8242H47.433ZM49.4904 23.0414C49.2972 23.0414 49.1239 23.0092 48.9706 22.9448C48.8173 22.8773 48.6961 22.7853 48.6072 22.6688C48.5183 22.5492 48.4692 22.4127 48.46 22.2594H48.8924C48.9047 22.3851 48.9629 22.4879 49.0672 22.5676C49.1745 22.6473 49.3141 22.6872 49.4858 22.6872C49.6453 22.6872 49.771 22.6519 49.863 22.5814C49.955 22.5109 50.001 22.4219 50.001 22.3146C50.001 22.2042 49.9519 22.1229 49.8538 22.0708C49.7557 22.0156 49.6039 21.9619 49.3984 21.9098C49.2113 21.8607 49.058 21.8117 48.9384 21.7626C48.8219 21.7105 48.7207 21.6353 48.6348 21.5372C48.552 21.436 48.5106 21.3041 48.5106 21.1416C48.5106 21.0128 48.5489 20.8947 48.6256 20.7874C48.7023 20.6801 48.8111 20.5957 48.9522 20.5344C49.0933 20.47 49.2543 20.4378 49.4352 20.4378C49.7143 20.4378 49.9397 20.5083 50.1114 20.6494C50.2831 20.7905 50.3751 20.9837 50.3874 21.229H49.9688C49.9596 21.0971 49.9059 20.9913 49.8078 20.9116C49.7127 20.8319 49.5839 20.792 49.4214 20.792C49.2711 20.792 49.1515 20.8242 49.0626 20.8886C48.9737 20.953 48.9292 21.0373 48.9292 21.1416C48.9292 21.2244 48.9553 21.2934 49.0074 21.3486C49.0626 21.4007 49.1301 21.4437 49.2098 21.4774C49.2926 21.5081 49.4061 21.5433 49.5502 21.5832C49.7311 21.6323 49.8783 21.6813 49.9918 21.7304C50.1053 21.7764 50.2019 21.8469 50.2816 21.942C50.3644 22.0371 50.4073 22.1613 50.4104 22.3146C50.4104 22.4526 50.3721 22.5768 50.2954 22.6872C50.2187 22.7976 50.1099 22.885 49.9688 22.9494C49.8308 23.0107 49.6713 23.0414 49.4904 23.0414ZM52.8965 22.287H51.4981L51.2405 23H50.7989L51.9581 19.8122H52.4411L53.5957 23H53.1541L52.8965 22.287ZM52.7769 21.9466L52.1973 20.3274L51.6177 21.9466H52.7769ZM54.5195 20.9438C54.6023 20.7997 54.725 20.6801 54.8875 20.585C55.0531 20.4869 55.2448 20.4378 55.4625 20.4378C55.6864 20.4378 55.8888 20.4915 56.0697 20.5988C56.2537 20.7061 56.3979 20.8579 56.5021 21.0542C56.6064 21.2474 56.6585 21.4728 56.6585 21.7304C56.6585 21.9849 56.6064 22.2119 56.5021 22.4112C56.3979 22.6105 56.2537 22.7654 56.0697 22.8758C55.8888 22.9862 55.6864 23.0414 55.4625 23.0414C55.2479 23.0414 55.0577 22.9939 54.8921 22.8988C54.7296 22.8007 54.6054 22.6795 54.5195 22.5354V24.196H54.1009V20.4792H54.5195V20.9438ZM56.2307 21.7304C56.2307 21.5403 56.1924 21.3747 56.1157 21.2336C56.0391 21.0925 55.9348 20.9852 55.8029 20.9116C55.6741 20.838 55.5315 20.8012 55.3751 20.8012C55.2218 20.8012 55.0792 20.8395 54.9473 20.9162C54.8185 20.9898 54.7143 21.0987 54.6345 21.2428C54.5579 21.3839 54.5195 21.5479 54.5195 21.735C54.5195 21.9251 54.5579 22.0923 54.6345 22.2364C54.7143 22.3775 54.8185 22.4863 54.9473 22.563C55.0792 22.6366 55.2218 22.6734 55.3751 22.6734C55.5315 22.6734 55.6741 22.6366 55.8029 22.563C55.9348 22.4863 56.0391 22.3775 56.1157 22.2364C56.1924 22.0923 56.2307 21.9236 56.2307 21.7304ZM57.6281 20.9438C57.7109 20.7997 57.8336 20.6801 57.9961 20.585C58.1617 20.4869 58.3534 20.4378 58.5711 20.4378C58.795 20.4378 58.9974 20.4915 59.1783 20.5988C59.3623 20.7061 59.5065 20.8579 59.6107 21.0542C59.715 21.2474 59.7671 21.4728 59.7671 21.7304C59.7671 21.9849 59.715 22.2119 59.6107 22.4112C59.5065 22.6105 59.3623 22.7654 59.1783 22.8758C58.9974 22.9862 58.795 23.0414 58.5711 23.0414C58.3565 23.0414 58.1663 22.9939 58.0007 22.8988C57.8382 22.8007 57.714 22.6795 57.6281 22.5354V24.196H57.2095V20.4792H57.6281V20.9438ZM59.3393 21.7304C59.3393 21.5403 59.301 21.3747 59.2243 21.2336C59.1477 21.0925 59.0434 20.9852 58.9115 20.9116C58.7827 20.838 58.6401 20.8012 58.4837 20.8012C58.3304 20.8012 58.1878 20.8395 58.0559 20.9162C57.9271 20.9898 57.8229 21.0987 57.7431 21.2428C57.6665 21.3839 57.6281 21.5479 57.6281 21.735C57.6281 21.9251 57.6665 22.0923 57.7431 22.2364C57.8229 22.3775 57.9271 22.4863 58.0559 22.563C58.1878 22.6366 58.3304 22.6734 58.4837 22.6734C58.6401 22.6734 58.7827 22.6366 58.9115 22.563C59.0434 22.4863 59.1477 22.3775 59.2243 22.2364C59.301 22.0923 59.3393 21.9236 59.3393 21.7304ZM63.4627 22.3468H62.1241L61.8941 23H61.3467L62.4921 19.7984H63.0993L64.2447 23H63.6927L63.4627 22.3468ZM63.3155 21.919L62.7957 20.4332L62.2713 21.919H63.3155ZM65.2671 19.803V23H64.7427V19.803H65.2671ZM66.9757 21.7304C66.9757 21.4697 67.0279 21.2413 67.1321 21.045C67.2395 20.8457 67.3867 20.6923 67.5737 20.585C67.7608 20.4777 67.9755 20.424 68.2177 20.424C68.5244 20.424 68.7774 20.4976 68.9767 20.6448C69.1791 20.7889 69.3156 20.9959 69.3861 21.2658H68.8203C68.7743 21.1401 68.7007 21.0419 68.5995 20.9714C68.4983 20.9009 68.3711 20.8656 68.2177 20.8656C68.0031 20.8656 67.8313 20.9423 67.7025 21.0956C67.5768 21.2459 67.5139 21.4575 67.5139 21.7304C67.5139 22.0033 67.5768 22.2165 67.7025 22.3698C67.8313 22.5231 68.0031 22.5998 68.2177 22.5998C68.5213 22.5998 68.7222 22.4664 68.8203 22.1996H69.3861C69.3125 22.4572 69.1745 22.6627 68.9721 22.816C68.7697 22.9663 68.5183 23.0414 68.2177 23.0414C67.9755 23.0414 67.7608 22.9877 67.5737 22.8804C67.3867 22.77 67.2395 22.6167 67.1321 22.4204C67.0279 22.2211 66.9757 21.9911 66.9757 21.7304ZM71.2197 20.424C71.4129 20.424 71.5847 20.4654 71.7349 20.5482C71.8883 20.631 72.0079 20.7537 72.0937 20.9162C72.1827 21.0787 72.2271 21.275 72.2271 21.505V23H71.7073V21.5832C71.7073 21.3563 71.6506 21.183 71.5371 21.0634C71.4237 20.9407 71.2688 20.8794 71.0725 20.8794C70.8763 20.8794 70.7199 20.9407 70.6033 21.0634C70.4899 21.183 70.4331 21.3563 70.4331 21.5832V23H69.9087V19.596H70.4331V20.7598C70.5221 20.6525 70.634 20.5697 70.7689 20.5114C70.9069 20.4531 71.0572 20.424 71.2197 20.424ZM72.7212 21.7212C72.7212 21.4667 72.7734 21.2413 72.8776 21.045C72.985 20.8487 73.1291 20.6969 73.31 20.5896C73.494 20.4792 73.6964 20.424 73.9172 20.424C74.1166 20.424 74.2898 20.4639 74.437 20.5436C74.5873 20.6203 74.7069 20.7169 74.7958 20.8334V20.4654H75.3248V23H74.7958V22.6228C74.7069 22.7424 74.5858 22.8421 74.4324 22.9218C74.2791 23.0015 74.1043 23.0414 73.908 23.0414C73.6903 23.0414 73.491 22.9862 73.31 22.8758C73.1291 22.7623 72.985 22.6059 72.8776 22.4066C72.7734 22.2042 72.7212 21.9757 72.7212 21.7212ZM74.7958 21.7304C74.7958 21.5556 74.759 21.4038 74.6854 21.275C74.6149 21.1462 74.5214 21.0481 74.4048 20.9806C74.2883 20.9131 74.1626 20.8794 74.0276 20.8794C73.8927 20.8794 73.767 20.9131 73.6504 20.9806C73.5339 21.045 73.4388 21.1416 73.3652 21.2704C73.2947 21.3961 73.2594 21.5464 73.2594 21.7212C73.2594 21.896 73.2947 22.0493 73.3652 22.1812C73.4388 22.3131 73.5339 22.4143 73.6504 22.4848C73.77 22.5523 73.8958 22.586 74.0276 22.586C74.1626 22.586 74.2883 22.5523 74.4048 22.4848C74.5214 22.4173 74.6149 22.3192 74.6854 22.1904C74.759 22.0585 74.7958 21.9052 74.7958 21.7304ZM76.6254 20.8932V22.2962C76.6254 22.3913 76.6469 22.4603 76.6898 22.5032C76.7358 22.5431 76.8125 22.563 76.9198 22.563H77.2418V23H76.8278C76.5917 23 76.4107 22.9448 76.285 22.8344C76.1593 22.724 76.0964 22.5446 76.0964 22.2962V20.8932H75.7974V20.4654H76.0964V19.8352H76.6254V20.4654H77.2418V20.8932H76.6254ZM79.8531 23.0414C79.6599 23.0414 79.4866 23.0092 79.3333 22.9448C79.18 22.8773 79.0588 22.7853 78.9699 22.6688C78.881 22.5492 78.8319 22.4127 78.8227 22.2594H79.2551C79.2674 22.3851 79.3256 22.4879 79.4299 22.5676C79.5372 22.6473 79.6768 22.6872 79.8485 22.6872C80.008 22.6872 80.1337 22.6519 80.2257 22.5814C80.3177 22.5109 80.3637 22.4219 80.3637 22.3146C80.3637 22.2042 80.3146 22.1229 80.2165 22.0708C80.1184 22.0156 79.9666 21.9619 79.7611 21.9098C79.574 21.8607 79.4207 21.8117 79.3011 21.7626C79.1846 21.7105 79.0834 21.6353 78.9975 21.5372C78.9147 21.436 78.8733 21.3041 78.8733 21.1416C78.8733 21.0128 78.9116 20.8947 78.9883 20.7874C79.065 20.6801 79.1738 20.5957 79.3149 20.5344C79.456 20.47 79.617 20.4378 79.7979 20.4378C80.077 20.4378 80.3024 20.5083 80.4741 20.6494C80.6458 20.7905 80.7378 20.9837 80.7501 21.229H80.3315C80.3223 21.0971 80.2686 20.9913 80.1705 20.9116C80.0754 20.8319 79.9466 20.792 79.7841 20.792C79.6338 20.792 79.5142 20.8242 79.4253 20.8886C79.3364 20.953 79.2919 21.0373 79.2919 21.1416C79.2919 21.2244 79.318 21.2934 79.3701 21.3486C79.4253 21.4007 79.4928 21.4437 79.5725 21.4774C79.6553 21.5081 79.7688 21.5433 79.9129 21.5832C80.0938 21.6323 80.241 21.6813 80.3545 21.7304C80.468 21.7764 80.5646 21.8469 80.6443 21.942C80.7271 22.0371 80.77 22.1613 80.7731 22.3146C80.7731 22.4526 80.7348 22.5768 80.6581 22.6872C80.5814 22.7976 80.4726 22.885 80.3315 22.9494C80.1935 23.0107 80.034 23.0414 79.8531 23.0414ZM83.5996 20.4792V23H83.181V22.6274C83.1013 22.7562 82.9893 22.8574 82.8452 22.931C82.7041 23.0015 82.5477 23.0368 82.376 23.0368C82.1797 23.0368 82.0034 22.9969 81.847 22.9172C81.6906 22.8344 81.5664 22.7117 81.4744 22.5492C81.3855 22.3867 81.341 22.1889 81.341 21.9558V20.4792H81.755V21.9006C81.755 22.149 81.8179 22.3407 81.9436 22.4756C82.0693 22.6075 82.2411 22.6734 82.4588 22.6734C82.6827 22.6734 82.859 22.6044 82.9878 22.4664C83.1166 22.3284 83.181 22.1275 83.181 21.8638V20.4792H83.5996ZM84.725 20.9438C84.8078 20.7997 84.9305 20.6801 85.093 20.585C85.2586 20.4869 85.4503 20.4378 85.668 20.4378C85.8919 20.4378 86.0943 20.4915 86.2752 20.5988C86.4592 20.7061 86.6033 20.8579 86.7076 21.0542C86.8119 21.2474 86.864 21.4728 86.864 21.7304C86.864 21.9849 86.8119 22.2119 86.7076 22.4112C86.6033 22.6105 86.4592 22.7654 86.2752 22.8758C86.0943 22.9862 85.8919 23.0414 85.668 23.0414C85.4533 23.0414 85.2632 22.9939 85.0976 22.8988C84.9351 22.8007 84.8109 22.6795 84.725 22.5354V24.196H84.3064V20.4792H84.725V20.9438ZM86.4362 21.7304C86.4362 21.5403 86.3979 21.3747 86.3212 21.2336C86.2445 21.0925 86.1403 20.9852 86.0084 20.9116C85.8796 20.838 85.737 20.8012 85.5806 20.8012C85.4273 20.8012 85.2847 20.8395 85.1528 20.9162C85.024 20.9898 84.9197 21.0987 84.84 21.2428C84.7633 21.3839 84.725 21.5479 84.725 21.735C84.725 21.9251 84.7633 22.0923 84.84 22.2364C84.9197 22.3775 85.024 22.4863 85.1528 22.563C85.2847 22.6366 85.4273 22.6734 85.5806 22.6734C85.737 22.6734 85.8796 22.6366 86.0084 22.563C86.1403 22.4863 86.2445 22.3775 86.3212 22.2364C86.3979 22.0923 86.4362 21.9236 86.4362 21.7304ZM87.8336 20.9438C87.9164 20.7997 88.0391 20.6801 88.2016 20.585C88.3672 20.4869 88.5589 20.4378 88.7766 20.4378C89.0005 20.4378 89.2029 20.4915 89.3838 20.5988C89.5678 20.7061 89.7119 20.8579 89.8162 21.0542C89.9205 21.2474 89.9726 21.4728 89.9726 21.7304C89.9726 21.9849 89.9205 22.2119 89.8162 22.4112C89.7119 22.6105 89.5678 22.7654 89.3838 22.8758C89.2029 22.9862 89.0005 23.0414 88.7766 23.0414C88.5619 23.0414 88.3718 22.9939 88.2062 22.8988C88.0437 22.8007 87.9195 22.6795 87.8336 22.5354V24.196H87.415V20.4792H87.8336V20.9438ZM89.5448 21.7304C89.5448 21.5403 89.5065 21.3747 89.4298 21.2336C89.3531 21.0925 89.2489 20.9852 89.117 20.9116C88.9882 20.838 88.8456 20.8012 88.6892 20.8012C88.5359 20.8012 88.3933 20.8395 88.2614 20.9162C88.1326 20.9898 88.0283 21.0987 87.9486 21.2428C87.8719 21.3839 87.8336 21.5479 87.8336 21.735C87.8336 21.9251 87.8719 22.0923 87.9486 22.2364C88.0283 22.3775 88.1326 22.4863 88.2614 22.563C88.3933 22.6366 88.5359 22.6734 88.6892 22.6734C88.8456 22.6734 88.9882 22.6366 89.117 22.563C89.2489 22.4863 89.3531 22.3775 89.4298 22.2364C89.5065 22.0923 89.5448 21.9236 89.5448 21.7304ZM91.623 23.0414C91.3869 23.0414 91.1722 22.9877 90.979 22.8804C90.7889 22.7731 90.6386 22.6213 90.5282 22.425C90.4209 22.2257 90.3672 21.9957 90.3672 21.735C90.3672 21.4774 90.4224 21.2505 90.5328 21.0542C90.6463 20.8549 90.7996 20.7031 90.9928 20.5988C91.186 20.4915 91.4022 20.4378 91.6414 20.4378C91.8806 20.4378 92.0968 20.4915 92.29 20.5988C92.4832 20.7031 92.635 20.8533 92.7454 21.0496C92.8589 21.2459 92.9156 21.4743 92.9156 21.735C92.9156 21.9957 92.8573 22.2257 92.7408 22.425C92.6273 22.6213 92.4725 22.7731 92.2762 22.8804C92.0799 22.9877 91.8622 23.0414 91.623 23.0414ZM91.623 22.6734C91.7733 22.6734 91.9143 22.6381 92.0462 22.5676C92.1781 22.4971 92.2839 22.3913 92.3636 22.2502C92.4464 22.1091 92.4878 21.9374 92.4878 21.735C92.4878 21.5326 92.4479 21.3609 92.3682 21.2198C92.2885 21.0787 92.1842 20.9745 92.0554 20.907C91.9266 20.8365 91.7871 20.8012 91.6368 20.8012C91.4835 20.8012 91.3424 20.8365 91.2136 20.907C91.0879 20.9745 90.9867 21.0787 90.91 21.2198C90.8333 21.3609 90.795 21.5326 90.795 21.735C90.795 21.9405 90.8318 22.1137 90.9054 22.2548C90.9821 22.3959 91.0833 22.5017 91.209 22.5722C91.3347 22.6397 91.4727 22.6734 91.623 22.6734ZM93.8846 20.8886C93.9582 20.7445 94.0624 20.6325 94.1974 20.5528C94.3354 20.4731 94.5025 20.4332 94.6988 20.4332V20.8656H94.5884C94.1192 20.8656 93.8846 21.1201 93.8846 21.6292V23H93.466V20.4792H93.8846V20.8886ZM95.6926 20.8242V22.31C95.6926 22.4327 95.7186 22.5201 95.7708 22.5722C95.8229 22.6213 95.9134 22.6458 96.0422 22.6458H96.3504V23H95.9732C95.7401 23 95.5653 22.9463 95.4488 22.839C95.3322 22.7317 95.274 22.5553 95.274 22.31V20.8242H94.9474V20.4792H95.274V19.8444H95.6926V20.4792H96.3504V20.8242H95.6926Z" fill="#18CB96"/>
<path d="M61.1903 23.46H77.3801V23.69H61.1903V23.46Z" fill="#18CB96"/>
</svg>
