<svg width="31" height="25" viewBox="0 0 31 25" fill="none" xmlns="http://www.w3.org/2000/svg">
<path d="M11.7909 2.56494C5.60593 2.56494 0.574097 7.3319 0.574097 13.1914C0.574097 15.2396 1.18952 17.2236 2.35681 18.9392C2.13584 21.5119 1.5436 23.4219 0.683647 24.3268C0.62828 24.3851 0.59173 24.4603 0.579159 24.5417C0.566589 24.6232 0.578634 24.7067 0.613592 24.7805C0.648551 24.8543 0.704657 24.9147 0.773985 24.9531C0.843313 24.9915 0.922359 25.0061 0.99996 24.9947C1.15139 24.9722 4.66896 24.4393 7.21329 22.8934C8.65801 23.507 10.197 23.8179 11.7909 23.8179C17.9758 23.8179 23.0076 19.0509 23.0076 13.1914C23.0076 7.3319 17.9758 2.56494 11.7909 2.56494ZM6.55637 14.7657C5.73156 14.7657 5.0608 14.0596 5.0608 13.1914C5.0608 12.3232 5.73156 11.6171 6.55637 11.6171C7.38117 11.6171 8.05193 12.3232 8.05193 13.1914C8.05193 14.0596 7.38117 14.7657 6.55637 14.7657ZM11.7909 14.7657C10.966 14.7657 10.2953 14.0596 10.2953 13.1914C10.2953 12.3232 10.966 11.6171 11.7909 11.6171C12.6157 11.6171 13.2864 12.3232 13.2864 13.1914C13.2864 14.0596 12.6157 14.7657 11.7909 14.7657ZM17.0253 14.7657C16.2005 14.7657 15.5298 14.0596 15.5298 13.1914C15.5298 12.3232 16.2005 11.6171 17.0253 11.6171C17.8501 11.6171 18.5209 12.3232 18.5209 13.1914C18.5209 14.0596 17.8501 14.7657 17.0253 14.7657Z" fill="#18CB96"/>
<circle cx="12.145" cy="12.4829" r="11.8071" fill="#18CB96"/>
<path d="M16.7856 18.2003C16.7856 21.8517 19.5999 24.8223 23.0591 24.8223C24.2682 24.8223 25.4395 24.4589 26.4523 23.7698C27.9712 23.9003 29.0988 24.2499 29.633 24.7576C29.6674 24.7903 29.7118 24.8119 29.7599 24.8193C29.8079 24.8267 29.8572 24.8196 29.9008 24.7989C29.9444 24.7783 29.98 24.7452 30.0027 24.7043C30.0254 24.6633 30.034 24.6167 30.0273 24.5709C30.014 24.4815 29.6994 22.4048 28.7867 20.9027C29.149 20.0498 29.3325 19.1413 29.3325 18.2003C29.3325 14.549 26.5183 11.5784 23.0591 11.5784C19.5999 11.5784 16.7856 14.549 16.7856 18.2003ZM23.9885 21.2906C23.9885 21.7775 23.5717 22.1735 23.0591 22.1735C22.5465 22.1735 22.1297 21.7775 22.1297 21.2906C22.1297 20.8036 22.5465 20.4077 23.0591 20.4077C23.5717 20.4077 23.9885 20.8036 23.9885 21.2906ZM23.9885 18.2003C23.9885 18.6873 23.5717 19.0833 23.0591 19.0833C22.5465 19.0833 22.1297 18.6873 22.1297 18.2003C22.1297 17.7134 22.5465 17.3174 23.0591 17.3174C23.5717 17.3174 23.9885 17.7134 23.9885 18.2003ZM23.9885 15.1101C23.9885 15.597 23.5717 15.993 23.0591 15.993C22.5465 15.993 22.1297 15.597 22.1297 15.1101C22.1297 14.6232 22.5465 14.2272 23.0591 14.2272C23.5717 14.2272 23.9885 14.6232 23.9885 15.1101Z" fill="#17635B"/>
<ellipse cx="22.6409" cy="17.9912" rx="6.97044" ry="6.97045" transform="rotate(-90 22.6409 17.9912)" fill="#17635B"/>
<mask id="mask0_33_2" style="mask-type:luminance" maskUnits="userSpaceOnUse" x="0" y="0" width="25" height="25">
<path d="M0 0H24.3243V24.3243H0V0Z" fill="white"/>
</mask>
<g mask="url(#mask0_33_2)">
<mask id="mask1_33_2" style="mask-type:luminance" maskUnits="userSpaceOnUse" x="0" y="0" width="25" height="25">
<path d="M12.1613 0C5.4445 0 0 5.44626 0 12.163C0 18.8798 5.4445 24.3243 12.1613 24.3243C18.8798 24.3243 24.3243 18.8798 24.3243 12.163C24.3243 5.44626 18.8798 0 12.1613 0Z" fill="white"/>
</mask>
<g mask="url(#mask1_33_2)">
<path d="M0 0H24.3243V24.3243H0V0Z" fill="#18CB96"/>
</g>
</g>
<mask id="mask2_33_2" style="mask-type:luminance" maskUnits="userSpaceOnUse" x="15" y="10" width="15" height="15">
<path d="M15.51 10.6409H29.8691V25H15.51V10.6409Z" fill="white"/>
</mask>
<g mask="url(#mask2_33_2)">
<mask id="mask3_33_2" style="mask-type:luminance" maskUnits="userSpaceOnUse" x="15" y="10" width="15" height="15">
<path d="M22.6896 10.6409C18.725 10.6409 15.51 13.8558 15.51 17.8204C15.51 21.785 18.725 25 22.6896 25C26.6542 25 29.8691 21.785 29.8691 17.8204C29.8691 13.8558 26.6542 10.6409 22.6896 10.6409Z" fill="white"/>
</mask>
<g mask="url(#mask3_33_2)">
<path d="M15.51 10.6409H29.8691V25H15.51V10.6409Z" fill="#17635B"/>
<path d="M21.178 21.9609H24.4502C24.6638 21.9609 24.8369 21.7878 24.8369 21.5743V21.518C24.8369 21.3044 24.6638 21.1313 24.4502 21.1313H21.178C20.9645 21.1313 20.7913 21.3044 20.7913 21.518V21.5743C20.7913 21.7878 20.9645 21.9609 21.178 21.9609Z" fill="white"/>
<path d="M22.6732 15.8262H22.9557V14.3979H22.6732V15.8262Z" fill="white"/>
<path d="M27.134 20.0784C27.58 19.9724 27.8557 19.5248 27.7497 19.0788C27.6436 18.6327 27.1961 18.357 26.75 18.4631C26.304 18.5691 26.0283 19.0166 26.1343 19.4627C26.2404 19.9087 26.6879 20.1844 27.134 20.0784Z" fill="white"/>
<path d="M18.7457 20.0247C19.1928 19.9232 19.4731 19.4786 19.3717 19.0314C19.2703 18.5843 18.8256 18.3041 18.3784 18.4055C17.9313 18.5069 17.6511 18.9516 17.7525 19.3987C17.8539 19.8458 18.2986 20.1261 18.7457 20.0247Z" fill="white"/>
<path d="M22.65 15.5165C22.65 15.5165 19.2747 15.476 18.7412 18.4015C18.2078 21.3271 21.0613 21.3797 21.8825 21.4349C22.2544 21.4602 23.0509 21.4628 23.7538 21.4502C25.3099 21.4233 26.4094 21.1224 26.7835 19.6788C26.828 19.5096 26.856 19.3364 26.8671 19.1617C26.9655 17.5771 25.896 15.4386 22.65 15.5165Z" fill="white"/>
<path d="M25.0984 19.9692L20.1948 20.0455C20.0724 20.0477 19.9508 20.0257 19.837 19.9808C19.7232 19.9359 19.6193 19.869 19.5313 19.7839C19.4434 19.6989 19.3731 19.5973 19.3244 19.485C19.2758 19.3727 19.2497 19.2519 19.2478 19.1296C19.2457 19.0072 19.2678 18.8856 19.3127 18.7718C19.3577 18.6579 19.4246 18.5541 19.5097 18.4661C19.5948 18.3782 19.6965 18.3079 19.8088 18.2592C19.9211 18.2106 20.0419 18.1846 20.1643 18.1826L25.0679 18.1064C25.1902 18.1041 25.3119 18.1261 25.4257 18.1709C25.5396 18.2158 25.6435 18.2827 25.7315 18.3678C25.8194 18.4528 25.8897 18.5545 25.9384 18.6668C25.987 18.7791 26.013 18.8999 26.0148 19.0223C26.017 19.1447 25.995 19.2663 25.9501 19.3801C25.9052 19.494 25.8382 19.5979 25.7531 19.6859C25.668 19.7738 25.5663 19.8441 25.454 19.8928C25.3416 19.9414 25.2208 19.9674 25.0984 19.9692Z" fill="#17635B"/>
<path d="M21.2138 19.0281C21.2024 19.0861 21.1741 19.1394 21.1324 19.1813C21.0907 19.2232 21.0375 19.2517 20.9796 19.2634C20.9217 19.275 20.8616 19.2693 20.8069 19.2468C20.7523 19.2243 20.7055 19.1861 20.6726 19.1371C20.6396 19.088 20.622 19.0303 20.6218 18.9712C20.6217 18.9121 20.6391 18.8543 20.6718 18.8051C20.7045 18.7558 20.751 18.7174 20.8056 18.6947C20.8601 18.6719 20.9202 18.6658 20.9782 18.6772C21.0167 18.6848 21.0533 18.6998 21.086 18.7216C21.1187 18.7433 21.1468 18.7712 21.1687 18.8038C21.1906 18.8364 21.2058 18.873 21.2136 18.9115C21.2213 18.95 21.2214 18.9896 21.2138 19.0281Z" fill="white"/>
<path d="M24.638 18.9734C24.6267 19.0314 24.5984 19.0848 24.5568 19.1268C24.5151 19.1687 24.462 19.1974 24.404 19.2091C24.3461 19.2209 24.286 19.2151 24.2313 19.1927C24.1766 19.1702 24.1298 19.1321 24.0968 19.083C24.0638 19.034 24.0461 18.9762 24.0459 18.9171C24.0457 18.858 24.0631 18.8002 24.0958 18.7509C24.1285 18.7017 24.1751 18.6632 24.2297 18.6405C24.2842 18.6177 24.3443 18.6116 24.4023 18.623C24.48 18.6383 24.5485 18.6838 24.5927 18.7495C24.6368 18.8152 24.6532 18.8957 24.638 18.9734Z" fill="white"/>
<path d="M22.0708 18.8902C22.0929 18.8928 22.0818 18.9954 22.1471 19.1359C22.184 19.2165 22.2379 19.2883 22.3049 19.3463C22.3835 19.4155 22.4813 19.459 22.5853 19.471C22.6898 19.4777 22.794 19.4528 22.8841 19.3995C22.9604 19.3551 23.0264 19.295 23.0777 19.2232C23.1672 19.0985 23.1751 18.9938 23.1971 18.9954C23.2061 18.9954 23.215 19.0217 23.215 19.0712C23.213 19.1416 23.195 19.2107 23.1624 19.2732C23.1134 19.3676 23.0409 19.4479 22.952 19.5063C22.842 19.5837 22.7081 19.6196 22.5741 19.6073C22.4401 19.5951 22.3148 19.5356 22.2207 19.4394C22.1439 19.366 22.0874 19.2739 22.0566 19.1722C22.0347 19.1043 22.0289 19.0323 22.0398 18.9618C22.0487 18.9128 22.0624 18.8886 22.0708 18.8902Z" fill="white"/>
<path d="M26.5651 20.2534C26.5599 20.2534 26.6204 20.1587 26.6788 19.9929C26.7514 19.7759 26.7973 19.5508 26.8156 19.3227C26.8366 19.0954 26.8419 18.8669 26.8313 18.6388C26.8277 18.5509 26.8234 18.481 26.8192 18.4284C26.8157 18.4029 26.8148 18.3772 26.8166 18.3516C26.8233 18.3763 26.8277 18.4017 26.8298 18.4273C26.8371 18.4762 26.8445 18.5473 26.8508 18.6378C26.8673 18.8676 26.8647 19.0985 26.8429 19.328C26.8244 19.5582 26.7754 19.785 26.6972 20.0024C26.6724 20.068 26.6425 20.1315 26.6078 20.1923C26.5953 20.2139 26.5811 20.2343 26.5651 20.2534Z" fill="#17635B"/>
<path d="M18.7475 18.3037C18.7445 18.3293 18.7391 18.3545 18.7312 18.3789C18.7244 18.4026 18.717 18.4315 18.7102 18.4663C18.7033 18.501 18.6928 18.5389 18.6865 18.5825C18.668 18.6839 18.6557 18.7864 18.6497 18.8892C18.6426 19.0151 18.6443 19.1413 18.6549 19.267C18.6667 19.3924 18.6871 19.5168 18.716 19.6394C18.7401 19.7397 18.7703 19.8385 18.8064 19.9351C18.8206 19.9767 18.837 20.013 18.8501 20.0456C18.8633 20.0782 18.8759 20.1055 18.8864 20.1276C18.8984 20.1504 18.9083 20.1741 18.9159 20.1987C18.9009 20.1778 18.8879 20.1556 18.8769 20.1324C18.8621 20.1061 18.8485 20.079 18.8364 20.0514C18.8217 20.0198 18.8038 19.9835 18.7886 19.9419C18.7495 19.8456 18.7171 19.7466 18.6918 19.6457C18.661 19.522 18.6395 19.3961 18.6276 19.2691C18.6168 19.1422 18.6158 19.0147 18.6244 18.8877C18.6317 18.7839 18.6462 18.6807 18.6676 18.5789C18.6754 18.5352 18.6865 18.4968 18.6954 18.4626C18.7044 18.4284 18.7128 18.3995 18.7207 18.3758C18.7277 18.3511 18.7366 18.327 18.7475 18.3037Z" fill="#17635B"/>
<path d="M22.2222 15.7353C22.2182 15.7356 22.2142 15.7356 22.2101 15.7353L22.1749 15.7389C22.1433 15.7421 22.097 15.7432 22.0376 15.75C21.8698 15.7663 21.7034 15.7939 21.5394 15.8326C20.6911 16.0269 19.9428 16.5241 19.4351 17.2309C19.1897 17.5706 19.004 17.9495 18.8858 18.3515C18.8674 18.4083 18.8574 18.4535 18.8485 18.4835L18.8385 18.5182C18.8375 18.5222 18.8361 18.5261 18.8343 18.5298C18.8336 18.5258 18.8336 18.5217 18.8343 18.5177C18.8343 18.5082 18.8385 18.4967 18.8416 18.4825C18.849 18.452 18.8569 18.4062 18.8737 18.3483C18.9176 18.1849 18.9739 18.025 19.0421 17.8701C19.2669 17.3553 19.6093 16.9004 20.0416 16.5417C20.4758 16.1858 20.9873 15.9365 21.5352 15.8136C21.7002 15.7762 21.8678 15.7514 22.0365 15.7395C22.0965 15.7342 22.1418 15.7347 22.1744 15.7332H22.2101C22.2186 15.7342 22.2222 15.7347 22.2222 15.7353Z" fill="white"/>
<path d="M18.92 19.7852C18.8989 19.7526 18.8826 19.7172 18.8716 19.68C18.8092 19.5041 18.7801 19.3182 18.7859 19.1318C18.7844 19.0931 18.789 19.0544 18.7995 19.0171C18.808 19.0171 18.7964 19.1928 18.8301 19.4053C18.8637 19.6179 18.9279 19.782 18.92 19.7852Z" fill="white"/>
<path d="M18.0346 19.5131C18.0346 19.5131 18.0225 19.5047 18.0062 19.4847C17.983 19.4564 17.963 19.4255 17.9468 19.3927C17.8906 19.2839 17.8691 19.1605 17.8852 19.0392C17.9013 18.9179 17.9542 18.8044 18.0367 18.714C18.0609 18.6863 18.0883 18.6616 18.1183 18.6404C18.1286 18.6317 18.1403 18.6249 18.153 18.6204C18.1562 18.6246 18.1088 18.6567 18.0515 18.7256C17.9762 18.8157 17.9281 18.9253 17.9126 19.0417C17.8971 19.1581 17.915 19.2765 17.9641 19.3832C18.001 19.4668 18.0383 19.51 18.0346 19.5131Z" fill="white"/>
<path d="M22.8446 14.0445C22.8035 14.04 22.7622 14.0391 22.721 14.0419C22.6719 14.0462 22.6245 14.0617 22.5823 14.0872C22.5402 14.1126 22.5044 14.1474 22.4778 14.1889C22.4512 14.2303 22.4344 14.2773 22.4288 14.3263C22.4231 14.3752 22.4288 14.4248 22.4453 14.4712C22.4595 14.5097 22.4771 14.5468 22.4979 14.5822C22.4979 14.5822 22.4874 14.5759 22.4726 14.559C22.4524 14.5347 22.4364 14.5071 22.4253 14.4775C22.4052 14.4284 22.3973 14.3751 22.4021 14.3223C22.407 14.2694 22.4245 14.2185 22.4532 14.1739C22.4819 14.1292 22.5209 14.0922 22.567 14.0658C22.613 14.0394 22.6648 14.0246 22.7178 14.0224C22.7493 14.0202 22.7809 14.0233 22.8114 14.0314C22.8351 14.035 22.8446 14.0429 22.8446 14.0445Z" fill="white"/>
<path d="M27.43 18.875C27.4242 18.8813 27.3427 18.803 27.2196 18.744C27.0965 18.6851 26.9844 18.6677 26.9855 18.6593C27.0712 18.6572 27.156 18.6779 27.2312 18.7193C27.3102 18.7524 27.3789 18.8062 27.43 18.875Z" fill="white"/>
<path d="M24.2882 17.9363C24.2882 17.9437 23.6421 17.95 22.8456 17.95C22.0491 17.95 21.4026 17.9437 21.4026 17.9363C21.4026 17.9289 22.0486 17.9226 22.8456 17.9226C23.6427 17.9226 24.2882 17.9279 24.2882 17.9363Z" fill="white"/>
<path d="M21.8261 21.226C21.8182 21.2282 21.8101 21.2295 21.8019 21.2297L21.7314 21.236C21.7009 21.2386 21.6635 21.2407 21.6199 21.2418C21.5762 21.2428 21.5267 21.2449 21.472 21.2418C21.3621 21.2418 21.2316 21.2339 21.0869 21.2186C20.9304 21.2004 20.7749 21.1736 20.6214 21.1382C20.4681 21.1014 20.3171 21.0561 20.1689 21.0024C20.0482 20.9582 19.9299 20.9078 19.8143 20.8514C19.7617 20.8283 19.7212 20.8041 19.6828 20.7836C19.6444 20.7631 19.6118 20.7446 19.5855 20.731L19.525 20.6941C19.5178 20.6902 19.5111 20.6854 19.505 20.6799C19.505 20.6799 19.5134 20.6799 19.5276 20.6894L19.5908 20.7215C19.6176 20.7362 19.6507 20.7536 19.6897 20.7741C19.7286 20.7946 19.7728 20.8157 19.8228 20.8378C19.9217 20.8841 20.0421 20.9335 20.1779 20.9824C20.4729 21.0882 20.7789 21.1602 21.0901 21.1971C21.2332 21.2139 21.3631 21.2234 21.472 21.226C21.5246 21.2292 21.5772 21.226 21.6199 21.226C21.6625 21.226 21.7004 21.226 21.7309 21.226H21.8014C21.8095 21.2246 21.8179 21.2246 21.8261 21.226Z" fill="white"/>
<path d="M23.1217 14.5021C23.3035 14.3202 23.3035 14.0255 23.1217 13.8436C22.9399 13.6618 22.6451 13.6618 22.4633 13.8436C22.2814 14.0255 22.2814 14.3202 22.4633 14.5021C22.6451 14.6839 22.9399 14.6839 23.1217 14.5021Z" fill="white"/>
<path d="M22.8678 13.827C22.8267 13.8225 22.7854 13.8216 22.7441 13.8244C22.6951 13.8287 22.6477 13.8441 22.6055 13.8696C22.5633 13.8951 22.5276 13.9299 22.501 13.9714C22.4744 14.0128 22.4576 14.0598 22.452 14.1087C22.4463 14.1577 22.452 14.2072 22.4685 14.2536C22.4827 14.2921 22.5003 14.3293 22.5211 14.3646C22.5211 14.3646 22.5106 14.3583 22.4958 14.3415C22.4756 14.3171 22.4596 14.2896 22.4485 14.26C22.4284 14.2108 22.4205 14.1576 22.4253 14.1047C22.4302 14.0519 22.4477 14.001 22.4764 13.9564C22.5051 13.9117 22.5441 13.8746 22.5902 13.8483C22.6362 13.8219 22.688 13.807 22.741 13.8049C22.7725 13.8027 22.8041 13.8057 22.8346 13.8138C22.8583 13.8175 22.8678 13.8254 22.8678 13.827Z" fill="white"/>
</g>
</g>
<circle cx="17" cy="13" r="4" fill="#18CB96"/>
<path d="M14.2461 9.682L12.5991 16H10.7361L9.72814 11.842L8.68414 16H6.82114L5.21914 9.682H6.86614L7.77514 14.281L8.90014 9.682H10.5921L11.6721 14.281L12.5901 9.682H14.2461ZM19.752 13.408C19.752 13.552 19.743 13.702 19.725 13.858H16.242C16.266 14.17 16.365 14.41 16.539 14.578C16.719 14.74 16.938 14.821 17.196 14.821C17.58 14.821 17.847 14.659 17.997 14.335H19.635C19.551 14.665 19.398 14.962 19.176 15.226C18.96 15.49 18.687 15.697 18.357 15.847C18.027 15.997 17.658 16.072 17.25 16.072C16.758 16.072 16.32 15.967 15.936 15.757C15.552 15.547 15.252 15.247 15.036 14.857C14.82 14.467 14.712 14.011 14.712 13.489C14.712 12.967 14.817 12.511 15.027 12.121C15.243 11.731 15.543 11.431 15.927 11.221C16.311 11.011 16.752 10.906 17.25 10.906C17.736 10.906 18.168 11.008 18.546 11.212C18.924 11.416 19.218 11.707 19.428 12.085C19.644 12.463 19.752 12.904 19.752 13.408ZM18.177 13.003C18.177 12.739 18.087 12.529 17.907 12.373C17.727 12.217 17.502 12.139 17.232 12.139C16.974 12.139 16.755 12.214 16.575 12.364C16.401 12.514 16.293 12.727 16.251 13.003H18.177Z" fill="white"/>
</svg>
